<svg version="1.1" viewBox="0.0 0.0 960.0 540.0" fill="none" stroke="none" stroke-linecap="square" stroke-miterlimit="10" xmlns:xlink="http://www.w3.org/1999/xlink" xmlns="http://www.w3.org/2000/svg"><clipPath id="gad76587cb3_0_184.0"><path d="m0 0l960.0 0l0 540.0l-960.0 0l0 -540.0z" clip-rule="nonzero"/></clipPath><g clip-path="url(#gad76587cb3_0_184.0)"><path fill="#ffffff" d="m0 0l960.0 0l0 540.0l-960.0 0z" fill-rule="evenodd"/><path fill="#000000" fill-opacity="0.0" d="m326.17322 186.8937l307.65356 0l0 164.44095l-307.65356 0z" fill-rule="evenodd"/><path stroke="#000000" stroke-width="2.0" stroke-linejoin="round" stroke-linecap="butt" d="m326.17322 186.8937l307.65356 0l0 164.44095l-307.65356 0z" fill-rule="evenodd"/><path fill="#000000" d="m343.68884 205.8762q0.328125 -0.3125 0.6875 -0.3125q0.390625 0 0.65625 0.296875q0.265625 0.28125 0.265625 0.9375l0 1.203125q0 0.671875 -0.265625 0.953125q-0.265625 0.28125 -0.671875 0.28125q-0.390625 0 -0.65625 -0.21875q-0.1875 -0.15625 -0.296875 -0.65625q-0.109375 -0.515625 -0.53125 -0.765625q-0.734375 -0.4375 -1.875 -0.4375q-1.328125 0 -2.125 0.78125q-0.796875 0.78125 -0.796875 1.953125q0 1.09375 0.765625 1.734375q0.765625 0.625 2.546875 0.625q1.15625 0 1.890625 -0.234375q0.4375 -0.140625 0.828125 -0.484375q0.40625 -0.359375 0.71875 -0.359375q0.375 0 0.65625 0.28125q0.28125 0.28125 0.28125 0.671875q0 0.609375 -0.84375 1.171875q-1.265625 0.828125 -3.6875 0.828125q-2.171875 0 -3.390625 -0.90625q-1.640625 -1.203125 -1.640625 -3.3125q0 -2.0 1.328125 -3.296875q1.34375 -1.3125 3.484375 -1.3125q0.765625 0 1.421875 0.15625q0.671875 0.140625 1.25 0.421875zm9.211212 -3.875l0 9.9375l2.234375 0q0.6875 0 0.96875 0.265625q0.28125 0.265625 0.28125 0.6875q0 0.40625 -0.28125 0.671875q-0.28125 0.25 -0.96875 0.25l-6.34375 0q-0.671875 0 -0.96875 -0.25q-0.28125 -0.265625 -0.28125 -0.6875q0 -0.40625 0.28125 -0.671875q0.296875 -0.265625 0.96875 -0.265625l2.25 0l0 -8.078125l-1.515625 0q-0.65625 0 -0.953125 -0.25q-0.296875 -0.265625 -0.296875 -0.6875q0 -0.40625 0.28125 -0.65625q0.296875 -0.265625 0.96875 -0.265625l3.375 0zm11.945557 11.8125l0 -0.4375q-0.703125 0.375 -1.5625 0.5625q-0.84375 0.1875 -1.53125 0.1875q-1.5 0 -2.4375 -0.796875q-0.9375 -0.796875 -0.9375 -1.765625q0 -1.171875 1.1875 -2.171875q1.203125 -1.015625 3.3125 -1.015625q0.859375 0 1.96875 0.1875l0 -0.453125q0 -0.421875 -0.359375 -0.6875q-0.359375 -0.265625 -1.375 -0.265625q-0.828125 0 -2.15625 0.328125q-0.484375 0.125 -0.765625 0.125q-0.359375 0 -0.625 -0.265625q-0.265625 -0.265625 -0.265625 -0.6875q0 -0.234375 0.09375 -0.40625q0.09375 -0.1875 0.25 -0.28125q0.171875 -0.109375 0.6875 -0.25q0.703125 -0.203125 1.421875 -0.3125q0.71875 -0.109375 1.296875 -0.109375q1.734375 0 2.6875 0.75q0.96875 0.75 0.96875 2.046875l0 3.84375l0.328125 0q0.671875 0 0.953125 0.265625q0.296875 0.265625 0.296875 0.6875q0 0.40625 -0.296875 0.671875q-0.28125 0.25 -0.953125 0.25l-2.1875 0zm0 -3.34375q-1.125 -0.21875 -2.078125 -0.21875q-1.125 0 -1.953125 0.5625q-0.515625 0.34375 -0.515625 0.71875q0 0.265625 0.25 0.421875q0.453125 0.296875 1.25 0.296875q0.671875 0 1.515625 -0.265625q0.859375 -0.265625 1.53125 -0.71875l0 -0.796875zm11.523712 -2.734375q-0.453125 -0.296875 -0.953125 -0.4375q-0.5 -0.140625 -1.046875 -0.140625q-1.078125 0 -1.71875 0.359375q-0.28125 0.15625 -0.28125 0.34375q0 0.203125 0.375 0.40625q0.296875 0.140625 1.3125 0.28125q1.859375 0.25 2.578125 0.515625q0.96875 0.328125 1.484375 1.0q0.515625 0.65625 0.515625 1.40625q0 1.0 -0.890625 1.671875q-1.265625 0.96875 -3.28125 0.96875q-0.8125 0 -1.5 -0.140625q-0.6875 -0.140625 -1.265625 -0.40625q-0.125 0.109375 -0.28125 0.171875q-0.15625 0.0625 -0.328125 0.0625q-0.4375 0 -0.703125 -0.28125q-0.25 -0.28125 -0.25 -0.953125l0 -0.640625q0 -0.671875 0.25 -0.953125q0.265625 -0.296875 0.6875 -0.296875q0.34375 0 0.5625 0.1875q0.234375 0.1875 0.359375 0.640625q0.421875 0.375 1.015625 0.5625q0.609375 0.1875 1.390625 0.1875q1.296875 0 2.0 -0.40625q0.34375 -0.203125 0.34375 -0.421875q0 -0.359375 -0.484375 -0.59375q-0.484375 -0.234375 -2.0 -0.40625q-2.25 -0.234375 -3.0 -0.90625q-0.765625 -0.671875 -0.765625 -1.640625q0 -1.0 0.859375 -1.671875q1.140625 -0.90625 3.0 -0.90625q0.640625 0 1.234375 0.125q0.609375 0.125 1.15625 0.375q0.171875 -0.125 0.3125 -0.1875q0.15625 -0.0625 0.28125 -0.0625q0.390625 0 0.640625 0.28125q0.25 0.28125 0.25 0.96875l0 0.453125q0 0.609375 -0.140625 0.828125q-0.296875 0.421875 -0.796875 0.421875q-0.328125 0 -0.59375 -0.203125q-0.25 -0.21875 -0.328125 -0.5625zm11.195557 0q-0.453125 -0.296875 -0.953125 -0.4375q-0.5 -0.140625 -1.046875 -0.140625q-1.078125 0 -1.71875 0.359375q-0.28125 0.15625 -0.28125 0.34375q0 0.203125 0.375 0.40625q0.296875 0.140625 1.3125 0.28125q1.859375 0.25 2.578125 0.515625q0.96875 0.328125 1.484375 1.0q0.515625 0.65625 0.515625 1.40625q0 1.0 -0.890625 1.671875q-1.265625 0.96875 -3.28125 0.96875q-0.8125 0 -1.5 -0.140625q-0.6875 -0.140625 -1.265625 -0.40625q-0.125 0.109375 -0.28125 0.171875q-0.15625 0.0625 -0.328125 0.0625q-0.4375 0 -0.703125 -0.28125q-0.25 -0.28125 -0.25 -0.953125l0 -0.640625q0 -0.671875 0.25 -0.953125q0.265625 -0.296875 0.6875 -0.296875q0.34375 0 0.5625 0.1875q0.234375 0.1875 0.359375 0.640625q0.421875 0.375 1.015625 0.5625q0.609375 0.1875 1.390625 0.1875q1.296875 0 2.0 -0.40625q0.34375 -0.203125 0.34375 -0.421875q0 -0.359375 -0.484375 -0.59375q-0.484375 -0.234375 -2.0 -0.40625q-2.25 -0.234375 -3.0 -0.90625q-0.765625 -0.671875 -0.765625 -1.640625q0 -1.0 0.859375 -1.671875q1.140625 -0.90625 3.0 -0.90625q0.640625 0 1.234375 0.125q0.609375 0.125 1.15625 0.375q0.171875 -0.125 0.3125 -0.1875q0.15625 -0.0625 0.28125 -0.0625q0.390625 0 0.640625 0.28125q0.25 0.28125 0.25 0.96875l0 0.453125q0 0.609375 -0.140625 0.828125q-0.296875 0.421875 -0.796875 0.421875q-0.328125 0 -0.59375 -0.203125q-0.25 -0.21875 -0.328125 -0.5625zm18.469269 1.46875l0 2.734375l4.75 0l0 -1.0q0 -0.671875 0.265625 -0.953125q0.265625 -0.296875 0.671875 -0.296875q0.421875 0 0.671875 0.296875q0.265625 0.28125 0.265625 0.953125l0 2.875l-8.796875 0q-0.671875 0 -0.96875 -0.25q-0.28125 -0.265625 -0.28125 -0.6875q0 -0.40625 0.296875 -0.671875q0.296875 -0.265625 0.953125 -0.265625l0.296875 0l0 -7.296875l-0.296875 0q-0.671875 0 -0.96875 -0.25q-0.28125 -0.265625 -0.28125 -0.6875q0 -0.421875 0.28125 -0.671875q0.296875 -0.265625 0.96875 -0.265625l8.390625 0l0 2.84375q0 0.671875 -0.265625 0.96875q-0.25 0.28125 -0.671875 0.28125q-0.421875 0 -0.6875 -0.28125q-0.25 -0.296875 -0.25 -0.96875l0 -0.96875l-4.34375 0l0 2.6875l1.625 0q0 -0.71875 0.140625 -0.9375q0.28125 -0.4375 0.8125 -0.4375q0.40625 0 0.65625 0.296875q0.265625 0.28125 0.265625 0.953125l0 2.140625q0 0.609375 -0.140625 0.828125q-0.296875 0.421875 -0.78125 0.421875q-0.53125 0 -0.8125 -0.4375q-0.140625 -0.21875 -0.140625 -0.953125l-1.625 0zm13.086212 -1.796875l0 4.53125l2.671875 0q0.671875 0 0.953125 0.265625q0.28125 0.265625 0.28125 0.6875q0 0.40625 -0.28125 0.671875q-0.28125 0.25 -0.953125 0.25l-5.640625 0q-0.671875 0 -0.96875 -0.25q-0.28125 -0.265625 -0.28125 -0.6875q0 -0.40625 0.28125 -0.671875q0.296875 -0.265625 0.96875 -0.265625l1.109375 0l0 -4.53125l-0.890625 0q-0.671875 0 -0.96875 -0.25q-0.28125 -0.265625 -0.28125 -0.6875q0 -0.40625 0.28125 -0.65625q0.296875 -0.265625 0.96875 -0.265625l0.890625 0l0 -0.71875q0 -1.21875 0.90625 -2.015625q0.921875 -0.8125 2.65625 -0.8125q0.78125 0 1.796875 0.140625q1.015625 0.140625 1.296875 0.40625q0.296875 0.25 0.296875 0.640625q0 0.4375 -0.265625 0.703125q-0.25 0.265625 -0.625 0.265625q-0.171875 0 -0.515625 -0.0625q-1.15625 -0.234375 -2.046875 -0.234375q-0.9375 0 -1.296875 0.28125q-0.34375 0.28125 -0.34375 0.6875l0 0.71875l2.890625 0q0.671875 0 0.953125 0.265625q0.28125 0.25 0.28125 0.671875q0 0.40625 -0.28125 0.671875q-0.28125 0.25 -0.953125 0.25l-2.890625 0zm11.195557 0l0 4.53125l2.671875 0q0.671875 0 0.953125 0.265625q0.28125 0.265625 0.28125 0.6875q0 0.40625 -0.28125 0.671875q-0.28125 0.25 -0.953125 0.25l-5.640625 0q-0.671875 0 -0.96875 -0.25q-0.28125 -0.265625 -0.28125 -0.6875q0 -0.40625 0.28125 -0.671875q0.296875 -0.265625 0.96875 -0.265625l1.109375 0l0 -4.53125l-0.890625 0q-0.671875 0 -0.96875 -0.25q-0.28125 -0.265625 -0.28125 -0.6875q0 -0.40625 0.28125 -0.65625q0.296875 -0.265625 0.96875 -0.265625l0.890625 0l0 -0.71875q0 -1.21875 0.90625 -2.015625q0.921875 -0.8125 2.65625 -0.8125q0.78125 0 1.796875 0.140625q1.015625 0.140625 1.296875 0.40625q0.296875 0.25 0.296875 0.640625q0 0.4375 -0.265625 0.703125q-0.25 0.265625 -0.625 0.265625q-0.171875 0 -0.515625 -0.0625q-1.15625 -0.234375 -2.046875 -0.234375q-0.9375 0 -1.296875 0.28125q-0.34375 0.28125 -0.34375 0.6875l0 0.71875l2.890625 0q0.671875 0 0.953125 0.265625q0.28125 0.25 0.28125 0.671875q0 0.40625 -0.28125 0.671875q-0.28125 0.25 -0.953125 0.25l-2.890625 0zm15.898712 3.21875l-7.65625 0q0.296875 0.734375 1.03125 1.1875q0.75 0.4375 2.015625 0.4375q1.03125 0 2.75 -0.453125q0.71875 -0.1875 0.984375 -0.1875q0.375 0 0.625 0.265625q0.265625 0.265625 0.265625 0.671875q0 0.359375 -0.28125 0.625q-0.359375 0.328125 -1.78125 0.640625q-1.40625 0.296875 -2.703125 0.296875q-2.25 0 -3.59375 -1.265625q-1.34375 -1.265625 -1.34375 -3.109375q0 -1.96875 1.453125 -3.203125q1.453125 -1.234375 3.359375 -1.234375q1.140625 0 2.078125 0.40625q0.953125 0.390625 1.421875 0.859375q0.65625 0.671875 1.09375 1.671875q0.28125 0.6875 0.28125 1.59375l0 0.796875zm-2.0625 -1.875q-0.4375 -0.796875 -1.125 -1.1875q-0.6875 -0.40625 -1.640625 -0.40625q-0.953125 0 -1.65625 0.40625q-0.6875 0.390625 -1.125 1.1875l5.546875 0zm11.492432 -2.875q0.328125 -0.3125 0.6875 -0.3125q0.390625 0 0.65625 0.296875q0.265625 0.28125 0.265625 0.9375l0 1.203125q0 0.671875 -0.265625 0.953125q-0.265625 0.28125 -0.671875 0.28125q-0.390625 0 -0.65625 -0.21875q-0.1875 -0.15625 -0.296875 -0.65625q-0.109375 -0.515625 -0.53125 -0.765625q-0.734375 -0.4375 -1.875 -0.4375q-1.328125 0 -2.125 0.78125q-0.796875 0.78125 -0.796875 1.953125q0 1.09375 0.765625 1.734375q0.765625 0.625 2.546875 0.625q1.15625 0 1.890625 -0.234375q0.4375 -0.140625 0.828125 -0.484375q0.40625 -0.359375 0.71875 -0.359375q0.375 0 0.65625 0.28125q0.28125 0.28125 0.28125 0.671875q0 0.609375 -0.84375 1.171875q-1.265625 0.828125 -3.6875 0.828125q-2.171875 0 -3.390625 -0.90625q-1.640625 -1.203125 -1.640625 -3.3125q0 -2.0 1.328125 -3.296875q1.34375 -1.3125 3.484375 -1.3125q0.765625 0 1.421875 0.15625q0.671875 0.140625 1.25 0.421875zm7.820587 1.53125l0 3.75q0 0.59375 0.25 0.78125q0.375 0.3125 1.359375 0.3125q1.4375 0 2.640625 -0.609375q0.46875 -0.234375 0.734375 -0.234375q0.359375 0 0.625 0.265625q0.265625 0.265625 0.265625 0.671875q0 0.359375 -0.28125 0.625q-0.453125 0.421875 -1.765625 0.78125q-1.3125 0.359375 -2.21875 0.359375q-1.734375 0 -2.609375 -0.75q-0.875 -0.75 -0.875 -1.84375l0 -4.109375l-0.671875 0q-0.671875 0 -0.96875 -0.25q-0.28125 -0.265625 -0.28125 -0.6875q0 -0.40625 0.28125 -0.65625q0.296875 -0.265625 0.96875 -0.265625l0.671875 0l0 -1.6875q0 -0.671875 0.265625 -0.953125q0.265625 -0.296875 0.671875 -0.296875q0.421875 0 0.671875 0.296875q0.265625 0.28125 0.265625 0.953125l0 1.6875l3.453125 0q0.671875 0 0.953125 0.265625q0.296875 0.25 0.296875 0.671875q0 0.40625 -0.296875 0.671875q-0.28125 0.25 -0.953125 0.25l-3.453125 0zm13.054932 -0.609375q0 0.515625 -0.375 0.875q-0.359375 0.359375 -1.015625 0.359375q-0.65625 0 -1.03125 -0.359375q-0.375 -0.359375 -0.375 -0.875q0 -0.53125 0.375 -0.890625q0.375 -0.359375 1.03125 -0.359375q0.65625 0 1.015625 0.359375q0.375 0.359375 0.375 0.890625zm0.015625 6.109375q0 0.53125 -0.375 0.890625q-0.359375 0.34375 -1.015625 0.34375q-0.65625 0 -1.03125 -0.34375q-0.375 -0.359375 -0.375 -0.890625q0 -0.53125 0.375 -0.890625q0.375 -0.359375 1.03125 -0.359375q0.65625 0 1.015625 0.359375q0.375 0.359375 0.375 0.890625z" fill-rule="nonzero"/><path fill="#000000" d="m392.68884 236.17308l0 10.859375l1.046875 0q0.28125 0 0.40625 0.109375q0.125 0.109375 0.125 0.28125q0 0.171875 -0.125 0.28125q-0.125 0.109375 -0.40625 0.109375l-1.828125 0l0 -1.546875q-1.359375 1.859375 -3.453125 1.859375q-1.046875 0 -2.015625 -0.5625q-0.96875 -0.5625 -1.53125 -1.59375q-0.5625 -1.046875 -0.5625 -2.15625q0 -1.109375 0.5625 -2.140625q0.5625 -1.046875 1.53125 -1.609375q0.96875 -0.5625 2.03125 -0.5625q2.046875 0 3.4375 1.859375l0 -4.40625l-1.046875 0q-0.28125 0 -0.40625 -0.109375q-0.125 -0.109375 -0.125 -0.28125q0 -0.171875 0.125 -0.28125q0.125 -0.109375 0.40625 -0.109375l1.828125 0zm-0.78125 7.640625q0 -1.484375 -1.015625 -2.5q-1.0 -1.03125 -2.375 -1.03125q-1.390625 0 -2.390625 1.03125q-1.0 1.015625 -1.0 2.5q0 1.46875 1.0 2.5q1.0 1.03125 2.390625 1.03125q1.375 0 2.375 -1.03125q1.015625 -1.03125 1.015625 -2.5zm12.589355 0.171875l-7.953125 0q0.21875 1.515625 1.28125 2.4375q1.0625 0.921875 2.625 0.921875q0.875 0 1.828125 -0.28125q0.953125 -0.296875 1.5625 -0.765625q0.171875 -0.140625 0.296875 -0.140625q0.15625 0 0.265625 0.125q0.109375 0.109375 0.109375 0.265625q0 0.15625 -0.15625 0.296875q-0.4375 0.46875 -1.578125 0.875q-1.140625 0.40625 -2.328125 0.40625q-2.0 0 -3.34375 -1.3125q-1.34375 -1.3125 -1.34375 -3.1875q0 -1.6875 1.25 -2.90625q1.265625 -1.21875 3.125 -1.21875q1.90625 0 3.140625 1.25q1.234375 1.25 1.21875 3.234375zm-0.796875 -0.796875q-0.234375 -1.28125 -1.21875 -2.09375q-0.984375 -0.8125 -2.34375 -0.8125q-1.375 0 -2.359375 0.8125q-0.96875 0.796875 -1.21875 2.09375l7.140625 0zm7.4643555 -2.625l0 6.46875l3.421875 0q0.28125 0 0.390625 0.109375q0.125 0.109375 0.125 0.28125q0 0.171875 -0.125 0.28125q-0.109375 0.109375 -0.390625 0.109375l-6.09375 0q-0.28125 0 -0.40625 -0.109375q-0.109375 -0.109375 -0.109375 -0.28125q0 -0.171875 0.109375 -0.28125q0.125 -0.109375 0.40625 -0.109375l1.875 0l0 -6.46875l-1.6875 0q-0.265625 0 -0.390625 -0.109375q-0.125 -0.109375 -0.125 -0.28125q0 -0.171875 0.125 -0.28125q0.125 -0.109375 0.390625 -0.109375l1.6875 0l0 -1.1875q0 -0.984375 0.796875 -1.703125q0.8125 -0.71875 2.125 -0.71875q1.109375 0 2.359375 0.203125q0.46875 0.078125 0.5625 0.1875q0.09375 0.09375 0.09375 0.25q0 0.171875 -0.109375 0.28125q-0.109375 0.109375 -0.296875 0.109375q-0.0625 0 -0.25 -0.03125q-1.390625 -0.21875 -2.359375 -0.21875q-1.015625 0 -1.578125 0.5q-0.546875 0.5 -0.546875 1.140625l0 1.1875l3.640625 0q0.28125 0 0.40625 0.109375q0.125 0.109375 0.125 0.28125q0 0.171875 -0.125 0.28125q-0.125 0.109375 -0.40625 0.109375l-3.640625 0zm25.55371 7.25l0 -1.125q-1.6875 1.4375 -3.625 1.4375q-1.40625 0 -2.1875 -0.703125q-0.78125 -0.71875 -0.78125 -1.75q0 -1.140625 1.03125 -1.984375q1.046875 -0.84375 3.03125 -0.84375q0.546875 0 1.171875 0.078125q0.625 0.0625 1.359375 0.21875l0 -1.265625q0 -0.640625 -0.59375 -1.109375q-0.59375 -0.484375 -1.78125 -0.484375q-0.90625 0 -2.546875 0.53125q-0.296875 0.09375 -0.375 0.09375q-0.15625 0 -0.265625 -0.109375q-0.109375 -0.109375 -0.109375 -0.28125q0 -0.15625 0.09375 -0.25q0.140625 -0.140625 1.0625 -0.375q1.4375 -0.390625 2.1875 -0.390625q1.46875 0 2.296875 0.734375q0.828125 0.71875 0.828125 1.640625l0 5.15625l1.03125 0q0.296875 0 0.40625 0.109375q0.125 0.109375 0.125 0.28125q0 0.171875 -0.125 0.28125q-0.109375 0.109375 -0.40625 0.109375l-1.828125 0zm0 -3.875q-0.546875 -0.15625 -1.15625 -0.234375q-0.609375 -0.078125 -1.28125 -0.078125q-1.703125 0 -2.65625 0.734375q-0.734375 0.546875 -0.734375 1.3125q0 0.703125 0.546875 1.1875q0.5625 0.484375 1.625 0.484375q1.0 0 1.859375 -0.40625q0.875 -0.40625 1.796875 -1.28125l0 -1.71875zm6.2299805 -4.15625l0 1.421875q0.6875 -0.84375 1.484375 -1.265625q0.8125 -0.4375 1.890625 -0.4375q1.15625 0 2.125 0.546875q0.96875 0.53125 1.5 1.5q0.546875 0.953125 0.546875 2.0q0 1.6875 -1.203125 2.890625q-1.203125 1.1875 -2.953125 1.1875q-2.09375 0 -3.390625 -1.703125l0 4.6875l1.890625 0q0.28125 0 0.390625 0.109375q0.125 0.109375 0.125 0.28125q0 0.171875 -0.125 0.28125q-0.109375 0.109375 -0.390625 0.109375l-3.71875 0q-0.28125 0 -0.40625 -0.109375q-0.109375 -0.09375 -0.109375 -0.28125q0 -0.171875 0.109375 -0.28125q0.125 -0.109375 0.40625 -0.109375l1.046875 0l0 -10.046875l-1.046875 0q-0.28125 0 -0.40625 -0.109375q-0.109375 -0.109375 -0.109375 -0.28125q0 -0.171875 0.109375 -0.28125q0.125 -0.109375 0.40625 -0.109375l1.828125 0zm6.75 3.765625q0 -1.34375 -0.984375 -2.296875q-0.96875 -0.96875 -2.375 -0.96875q-1.421875 0 -2.40625 0.96875q-0.984375 0.96875 -0.984375 2.296875q0 1.359375 0.984375 2.328125q0.984375 0.953125 2.40625 0.953125q1.390625 0 2.375 -0.953125q0.984375 -0.96875 0.984375 -2.328125zm4.6518555 -3.765625l0 1.421875q0.6875 -0.84375 1.484375 -1.265625q0.8125 -0.4375 1.890625 -0.4375q1.15625 0 2.125 0.546875q0.96875 0.53125 1.5 1.5q0.546875 0.953125 0.546875 2.0q0 1.6875 -1.203125 2.890625q-1.203125 1.1875 -2.953125 1.1875q-2.09375 0 -3.390625 -1.703125l0 4.6875l1.890625 0q0.28125 0 0.390625 0.109375q0.125 0.109375 0.125 0.28125q0 0.171875 -0.125 0.28125q-0.109375 0.109375 -0.390625 0.109375l-3.71875 0q-0.28125 0 -0.40625 -0.109375q-0.109375 -0.09375 -0.109375 -0.28125q0 -0.171875 0.109375 -0.28125q0.125 -0.109375 0.40625 -0.109375l1.046875 0l0 -10.046875l-1.046875 0q-0.28125 0 -0.40625 -0.109375q-0.109375 -0.109375 -0.109375 -0.28125q0 -0.171875 0.109375 -0.28125q0.125 -0.109375 0.40625 -0.109375l1.828125 0zm6.75 3.765625q0 -1.34375 -0.984375 -2.296875q-0.96875 -0.96875 -2.375 -0.96875q-1.421875 0 -2.40625 0.96875q-0.984375 0.96875 -0.984375 2.296875q0 1.359375 0.984375 2.328125q0.984375 0.953125 2.40625 0.953125q1.390625 0 2.375 -0.953125q0.984375 -0.96875 0.984375 -2.328125zm7.9799805 -7.375l0 10.859375l3.0625 0q0.28125 0 0.40625 0.109375q0.125 0.109375 0.125 0.28125q0 0.171875 -0.125 0.28125q-0.125 0.109375 -0.40625 0.109375l-6.90625 0q-0.28125 0 -0.40625 -0.109375q-0.109375 -0.109375 -0.109375 -0.28125q0 -0.171875 0.109375 -0.28125q0.125 -0.109375 0.40625 -0.109375l3.0625 0l0 -10.078125l-2.234375 0q-0.28125 0 -0.40625 -0.109375q-0.125 -0.109375 -0.125 -0.28125q0 -0.171875 0.109375 -0.28125q0.125 -0.109375 0.421875 -0.109375l3.015625 0zm11.058105 11.640625l-3.609375 -7.25l-0.234375 0q-0.28125 0 -0.40625 -0.109375q-0.125 -0.109375 -0.125 -0.28125q0 -0.109375 0.0625 -0.203125q0.0625 -0.109375 0.15625 -0.140625q0.109375 -0.046875 0.3125 -0.046875l2.125 0q0.28125 0 0.40625 0.109375q0.125 0.109375 0.125 0.28125q0 0.171875 -0.125 0.28125q-0.125 0.109375 -0.40625 0.109375l-1.046875 0l3.1875 6.390625l3.140625 -6.390625l-1.0625 0q-0.265625 0 -0.390625 -0.109375q-0.125 -0.109375 -0.125 -0.28125q0 -0.171875 0.125 -0.28125q0.125 -0.109375 0.390625 -0.109375l2.125 0q0.296875 0 0.40625 0.109375q0.125 0.109375 0.125 0.28125q0 0.125 -0.078125 0.234375q-0.0625 0.09375 -0.15625 0.125q-0.09375 0.03125 -0.515625 0.03125l-4.9375 10.046875l1.203125 0q0.28125 0 0.40625 0.109375q0.125 0.109375 0.125 0.28125q0 0.171875 -0.125 0.28125q-0.125 0.109375 -0.40625 0.109375l-4.484375 0q-0.28125 0 -0.40625 -0.109375q-0.109375 -0.09375 -0.109375 -0.28125q0 -0.171875 0.109375 -0.28125q0.125 -0.109375 0.40625 -0.109375l2.4375 0l1.375 -2.796875zm16.526855 5.203125l-10.359375 0q-0.28125 0 -0.40625 -0.109375q-0.109375 -0.109375 -0.109375 -0.28125q0 -0.171875 0.109375 -0.28125q0.125 -0.109375 0.40625 -0.109375l10.359375 0q0.296875 0 0.40625 0.109375q0.125 0.109375 0.125 0.28125q0 0.171875 -0.125 0.28125q-0.109375 0.109375 -0.40625 0.109375zm4.6206055 -13.234375l4.234375 0q0.28125 0 0.390625 0.109375q0.125 0.109375 0.125 0.28125q0 0.171875 -0.125 0.28125q-0.109375 0.109375 -0.390625 0.109375l-4.234375 0l0 5.1875q0 0.6875 0.546875 1.140625q0.546875 0.453125 1.59375 0.453125q0.78125 0 1.703125 -0.234375q0.921875 -0.25 1.4375 -0.546875q0.1875 -0.109375 0.296875 -0.109375q0.15625 0 0.265625 0.125q0.109375 0.109375 0.109375 0.265625q0 0.140625 -0.125 0.25q-0.296875 0.3125 -1.4375 0.671875q-1.140625 0.359375 -2.1875 0.359375q-1.375 0 -2.1875 -0.640625q-0.796875 -0.640625 -0.796875 -1.734375l0 -5.1875l-1.4375 0q-0.28125 0 -0.40625 -0.109375q-0.109375 -0.109375 -0.109375 -0.28125q0 -0.171875 0.109375 -0.28125q0.125 -0.109375 0.40625 -0.109375l1.4375 0l0 -2.296875q0 -0.28125 0.109375 -0.40625q0.109375 -0.125 0.28125 -0.125q0.171875 0 0.28125 0.125q0.109375 0.125 0.109375 0.40625l0 2.296875zm17.370605 4.03125q0 1.78125 -1.28125 3.046875q-1.28125 1.265625 -3.078125 1.265625q-1.8125 0 -3.09375 -1.265625q-1.265625 -1.28125 -1.265625 -3.046875q0 -1.78125 1.265625 -3.046875q1.28125 -1.265625 3.09375 -1.265625q1.796875 0 3.078125 1.265625q1.28125 1.25 1.28125 3.046875zm-0.796875 0q0 -1.46875 -1.046875 -2.5q-1.03125 -1.03125 -2.515625 -1.03125q-1.484375 0 -2.53125 1.046875q-1.046875 1.03125 -1.046875 2.484375q0 1.453125 1.046875 2.5q1.046875 1.03125 2.53125 1.03125q1.484375 0 2.515625 -1.03125q1.046875 -1.046875 1.046875 -2.5zm7.7456055 -0.625q0 -1.0625 0.28125 -2.25q0.28125 -1.203125 1.0625 -2.765625q0.796875 -1.578125 1.15625 -1.90625q0.109375 -0.09375 0.234375 -0.09375q0.171875 0 0.28125 0.109375q0.125 0.109375 0.125 0.265625q0 0.09375 -0.0625 0.203125q-1.03125 1.875 -1.46875 3.40625q-0.421875 1.515625 -0.421875 3.03125q0 1.53125 0.421875 3.0625q0.4375 1.515625 1.46875 3.375q0.0625 0.125 0.0625 0.203125q0 0.171875 -0.125 0.28125q-0.109375 0.109375 -0.28125 0.109375q-0.125 0 -0.234375 -0.09375q-0.34375 -0.3125 -1.125 -1.84375q-0.78125 -1.53125 -1.078125 -2.703125q-0.296875 -1.1875 -0.296875 -2.390625zm15.85498 0.625q0 1.78125 -1.28125 3.046875q-1.28125 1.265625 -3.078125 1.265625q-1.8125 0 -3.09375 -1.265625q-1.265625 -1.28125 -1.265625 -3.046875q0 -1.78125 1.265625 -3.046875q1.28125 -1.265625 3.09375 -1.265625q1.796875 0 3.078125 1.265625q1.28125 1.25 1.28125 3.046875zm-0.796875 0q0 -1.46875 -1.046875 -2.5q-1.03125 -1.03125 -2.515625 -1.03125q-1.484375 0 -2.53125 1.046875q-1.046875 1.03125 -1.046875 2.484375q0 1.453125 1.046875 2.5q1.046875 1.03125 2.53125 1.03125q1.484375 0 2.515625 -1.03125q1.046875 -1.046875 1.046875 -2.5zm4.9018555 -7.640625l0 5.171875q1.40625 -1.84375 3.40625 -1.84375q1.703125 0 2.921875 1.25q1.21875 1.234375 1.21875 3.03125q0 1.8125 -1.234375 3.078125q-1.234375 1.265625 -2.90625 1.265625q-2.046875 0 -3.40625 -1.84375l0 1.53125l-1.828125 0q-0.28125 0 -0.40625 -0.109375q-0.109375 -0.109375 -0.109375 -0.28125q0 -0.171875 0.109375 -0.28125q0.125 -0.109375 0.40625 -0.109375l1.046875 0l0 -10.078125l-1.046875 0q-0.28125 0 -0.40625 -0.109375q-0.109375 -0.109375 -0.109375 -0.28125q0 -0.171875 0.109375 -0.28125q0.125 -0.109375 0.40625 -0.109375l1.828125 0zm6.765625 7.640625q0 -1.46875 -1.015625 -2.5q-1.015625 -1.03125 -2.359375 -1.03125q-1.359375 0 -2.375 1.03125q-1.0 1.03125 -1.0 2.5q0 1.46875 1.0 2.5q1.015625 1.03125 2.375 1.03125q1.34375 0 2.359375 -1.03125q1.015625 -1.03125 1.015625 -2.5zm8.683105 -8.03125l0 2.015625l-1.140625 0l0 -2.015625l1.140625 0zm0.046875 4.78125l-4.625 0q-0.28125 0 -0.40625 -0.109375q-0.109375 -0.109375 -0.109375 -0.28125q0 -0.171875 0.109375 -0.28125q0.125 -0.109375 0.40625 -0.109375l5.40625 0l0 8.578125q0 1.0 -0.40625 1.65625q-0.40625 0.671875 -1.21875 1.09375q-0.5625 0.28125 -1.34375 0.28125l-2.484375 0q-0.28125 0 -0.40625 -0.109375q-0.109375 -0.09375 -0.109375 -0.28125q0 -0.171875 0.109375 -0.28125q0.125 -0.109375 0.40625 -0.109375l2.453125 0q1.0 0 1.609375 -0.65625q0.609375 -0.640625 0.609375 -1.59375l0 -7.796875zm14.464355 3.421875l-7.953125 0q0.21875 1.515625 1.28125 2.4375q1.0625 0.921875 2.625 0.921875q0.875 0 1.828125 -0.28125q0.953125 -0.296875 1.5625 -0.765625q0.171875 -0.140625 0.296875 -0.140625q0.15625 0 0.265625 0.125q0.109375 0.109375 0.109375 0.265625q0 0.15625 -0.15625 0.296875q-0.4375 0.46875 -1.578125 0.875q-1.140625 0.40625 -2.328125 0.40625q-2.0 0 -3.34375 -1.3125q-1.34375 -1.3125 -1.34375 -3.1875q0 -1.6875 1.25 -2.90625q1.265625 -1.21875 3.125 -1.21875q1.90625 0 3.140625 1.25q1.234375 1.25 1.21875 3.234375zm-0.796875 -0.796875q-0.234375 -1.28125 -1.21875 -2.09375q-0.984375 -0.8125 -2.34375 -0.8125q-1.375 0 -2.359375 0.8125q-0.96875 0.796875 -1.21875 2.09375l7.140625 0zm11.22998 -2.625l0 -0.25q0 -0.296875 0.109375 -0.40625q0.109375 -0.125 0.28125 -0.125q0.171875 0 0.28125 0.125q0.109375 0.109375 0.109375 0.40625l0 1.75q0 0.296875 -0.109375 0.421875q-0.109375 0.109375 -0.28125 0.109375q-0.15625 0 -0.265625 -0.09375q-0.109375 -0.109375 -0.125 -0.359375q-0.0625 -0.671875 -0.875 -1.265625q-0.796875 -0.59375 -2.171875 -0.59375q-1.734375 0 -2.640625 1.09375q-0.90625 1.078125 -0.90625 2.484375q0 1.515625 0.984375 2.5q1.0 0.984375 2.578125 0.984375q0.921875 0 1.859375 -0.328125q0.9375 -0.34375 1.703125 -1.09375q0.1875 -0.171875 0.34375 -0.171875q0.15625 0 0.265625 0.109375q0.109375 0.09375 0.109375 0.25q0 0.40625 -0.9375 1.015625q-1.515625 1.0 -3.375 1.0q-1.875 0 -3.09375 -1.203125q-1.203125 -1.203125 -1.203125 -3.046875q0 -1.890625 1.234375 -3.125q1.234375 -1.25 3.125 -1.25q1.78125 0 3.0 1.0625zm6.5424805 -0.78125l4.234375 0q0.28125 0 0.390625 0.109375q0.125 0.109375 0.125 0.28125q0 0.171875 -0.125 0.28125q-0.109375 0.109375 -0.390625 0.109375l-4.234375 0l0 5.1875q0 0.6875 0.546875 1.140625q0.546875 0.453125 1.59375 0.453125q0.78125 0 1.703125 -0.234375q0.921875 -0.25 1.4375 -0.546875q0.1875 -0.109375 0.296875 -0.109375q0.15625 0 0.265625 0.125q0.109375 0.109375 0.109375 0.265625q0 0.140625 -0.125 0.25q-0.296875 0.3125 -1.4375 0.671875q-1.140625 0.359375 -2.1875 0.359375q-1.375 0 -2.1875 -0.640625q-0.796875 -0.640625 -0.796875 -1.734375l0 -5.1875l-1.4375 0q-0.28125 0 -0.40625 -0.109375q-0.109375 -0.109375 -0.109375 -0.28125q0 -0.171875 0.109375 -0.28125q0.125 -0.109375 0.40625 -0.109375l1.4375 0l0 -2.296875q0 -0.28125 0.109375 -0.40625q0.109375 -0.125 0.28125 -0.125q0.171875 0 0.28125 0.125q0.109375 0.125 0.109375 0.40625l0 2.296875zm13.22998 3.421875q0 1.0625 -0.28125 2.265625q-0.265625 1.1875 -1.0625 2.75q-0.78125 1.578125 -1.140625 1.890625q-0.109375 0.109375 -0.25 0.109375q-0.15625 0 -0.28125 -0.109375q-0.109375 -0.109375 -0.109375 -0.28125q0 -0.078125 0.0625 -0.203125q1.015625 -1.859375 1.453125 -3.375q0.4375 -1.53125 0.4375 -3.046875q0 -1.53125 -0.4375 -3.046875q-0.4375 -1.53125 -1.453125 -3.40625q-0.0625 -0.109375 -0.0625 -0.203125q0 -0.15625 0.109375 -0.265625q0.125 -0.109375 0.28125 -0.109375q0.140625 0 0.25 0.09375q0.34375 0.328125 1.109375 1.859375q0.78125 1.515625 1.078125 2.703125q0.296875 1.171875 0.296875 2.375zm11.01123 -3.421875l0.34375 0q0.515625 0 0.890625 0.375q0.375 0.359375 0.375 0.875q0 0.546875 -0.375 0.90625q-0.375 0.359375 -0.890625 0.359375l-0.34375 0q-0.515625 0 -0.890625 -0.359375q-0.359375 -0.375 -0.359375 -0.890625q0 -0.546875 0.375 -0.90625q0.375 -0.359375 0.875 -0.359375zm0 5.796875l0.34375 0q0.515625 0 0.890625 0.375q0.375 0.359375 0.375 0.875q0 0.53125 -0.375 0.90625q-0.375 0.359375 -0.890625 0.359375l-0.34375 0q-0.515625 0 -0.890625 -0.359375q-0.359375 -0.375 -0.359375 -0.890625q0 -0.546875 0.375 -0.90625q0.375 -0.359375 0.875 -0.359375z" fill-rule="nonzero"/><path fill="#000000" d="m436.70447 279.5793l0.34375 0q0.515625 0 0.890625 0.375q0.375 0.359375 0.375 0.875q0 0.53125 -0.375 0.90625q-0.375 0.359375 -0.890625 0.359375l-0.34375 0q-0.515625 0 -0.890625 -0.359375q-0.359375 -0.375 -0.359375 -0.890625q0 -0.546875 0.375 -0.90625q0.375 -0.359375 0.875 -0.359375zm11.401855 0l0.34375 0q0.515625 0 0.890625 0.375q0.375 0.359375 0.375 0.875q0 0.53125 -0.375 0.90625q-0.375 0.359375 -0.890625 0.359375l-0.34375 0q-0.515625 0 -0.890625 -0.359375q-0.359375 -0.375 -0.359375 -0.890625q0 -0.546875 0.375 -0.90625q0.375 -0.359375 0.875 -0.359375zm11.401855 0l0.34375 0q0.515625 0 0.890625 0.375q0.375 0.359375 0.375 0.875q0 0.53125 -0.375 0.90625q-0.375 0.359375 -0.890625 0.359375l-0.34375 0q-0.515625 0 -0.890625 -0.359375q-0.359375 -0.375 -0.359375 -0.890625q0 -0.546875 0.375 -0.90625q0.375 -0.359375 0.875 -0.359375z" fill-rule="nonzero"/><path fill="#000000" d="m435.93884 307.78244l0 1.96875q1.53125 -1.375 2.28125 -1.765625q0.75 -0.40625 1.390625 -0.40625q0.703125 0 1.296875 0.46875q0.59375 0.46875 0.59375 0.71875q0 0.171875 -0.109375 0.296875q-0.109375 0.109375 -0.296875 0.109375q-0.09375 0 -0.15625 -0.03125q-0.0625 -0.03125 -0.234375 -0.21875q-0.328125 -0.3125 -0.578125 -0.4375q-0.234375 -0.125 -0.46875 -0.125q-0.5 0 -1.21875 0.40625q-0.71875 0.40625 -2.5 2.0l0 4.265625l3.453125 0q0.28125 0 0.40625 0.109375q0.125 0.109375 0.125 0.28125q0 0.171875 -0.125 0.28125q-0.125 0.109375 -0.40625 0.109375l-6.109375 0q-0.28125 0 -0.40625 -0.109375q-0.109375 -0.109375 -0.109375 -0.265625q0 -0.15625 0.109375 -0.265625q0.109375 -0.109375 0.40625 -0.109375l1.875 0l0 -6.5l-1.4375 0q-0.28125 0 -0.40625 -0.109375q-0.109375 -0.109375 -0.109375 -0.28125q0 -0.171875 0.109375 -0.28125q0.125 -0.109375 0.40625 -0.109375l2.21875 0zm16.558105 4.203125l-7.953125 0q0.21875 1.515625 1.28125 2.4375q1.0625 0.921875 2.625 0.921875q0.875 0 1.828125 -0.28125q0.953125 -0.296875 1.5625 -0.765625q0.171875 -0.140625 0.296875 -0.140625q0.15625 0 0.265625 0.125q0.109375 0.109375 0.109375 0.265625q0 0.15625 -0.15625 0.296875q-0.4375 0.46875 -1.578125 0.875q-1.140625 0.40625 -2.328125 0.40625q-2.0 0 -3.34375 -1.3125q-1.34375 -1.3125 -1.34375 -3.1875q0 -1.6875 1.25 -2.90625q1.265625 -1.21875 3.125 -1.21875q1.90625 0 3.140625 1.25q1.234375 1.25 1.21875 3.234375zm-0.796875 -0.796875q-0.234375 -1.28125 -1.21875 -2.09375q-0.984375 -0.8125 -2.34375 -0.8125q-1.375 0 -2.359375 0.8125q-0.96875 0.796875 -1.21875 2.09375l7.140625 0zm6.3706055 -3.40625l4.234375 0q0.28125 0 0.390625 0.109375q0.125 0.109375 0.125 0.28125q0 0.171875 -0.125 0.28125q-0.109375 0.109375 -0.390625 0.109375l-4.234375 0l0 5.1875q0 0.6875 0.546875 1.140625q0.546875 0.453125 1.59375 0.453125q0.78125 0 1.703125 -0.234375q0.921875 -0.25 1.4375 -0.546875q0.1875 -0.109375 0.296875 -0.109375q0.15625 0 0.265625 0.125q0.109375 0.109375 0.109375 0.265625q0 0.140625 -0.125 0.25q-0.296875 0.3125 -1.4375 0.671875q-1.140625 0.359375 -2.1875 0.359375q-1.375 0 -2.1875 -0.640625q-0.796875 -0.640625 -0.796875 -1.734375l0 -5.1875l-1.4375 0q-0.28125 0 -0.40625 -0.109375q-0.109375 -0.109375 -0.109375 -0.28125q0 -0.171875 0.109375 -0.28125q0.125 -0.109375 0.40625 -0.109375l1.4375 0l0 -2.296875q0 -0.28125 0.109375 -0.40625q0.109375 -0.125 0.28125 -0.125q0.171875 0 0.28125 0.125q0.109375 0.125 0.109375 0.40625l0 2.296875zm15.683105 8.03125l0 -1.140625q-1.609375 1.453125 -3.453125 1.453125q-1.140625 0 -1.734375 -0.625q-0.78125 -0.8125 -0.78125 -1.90625l0 -5.03125l-1.046875 0q-0.28125 0 -0.40625 -0.109375q-0.109375 -0.109375 -0.109375 -0.28125q0 -0.171875 0.109375 -0.28125q0.125 -0.109375 0.40625 -0.109375l1.828125 0l0 5.8125q0 0.765625 0.484375 1.265625q0.484375 0.484375 1.203125 0.484375q1.90625 0 3.5 -1.75l0 -5.03125l-1.4375 0q-0.28125 0 -0.40625 -0.109375q-0.125 -0.109375 -0.125 -0.28125q0 -0.171875 0.125 -0.28125q0.125 -0.109375 0.40625 -0.109375l2.203125 0l0 7.25l0.671875 0q0.265625 0 0.390625 0.109375q0.125 0.109375 0.125 0.28125q0 0.171875 -0.125 0.28125q-0.125 0.109375 -0.390625 0.109375l-1.4375 0zm7.7924805 -8.03125l0 1.96875q1.53125 -1.375 2.28125 -1.765625q0.75 -0.40625 1.390625 -0.40625q0.703125 0 1.296875 0.46875q0.59375 0.46875 0.59375 0.71875q0 0.171875 -0.109375 0.296875q-0.109375 0.109375 -0.296875 0.109375q-0.09375 0 -0.15625 -0.03125q-0.0625 -0.03125 -0.234375 -0.21875q-0.328125 -0.3125 -0.578125 -0.4375q-0.234375 -0.125 -0.46875 -0.125q-0.5 0 -1.21875 0.40625q-0.71875 0.40625 -2.5 2.0l0 4.265625l3.453125 0q0.28125 0 0.40625 0.109375q0.125 0.109375 0.125 0.28125q0 0.171875 -0.125 0.28125q-0.125 0.109375 -0.40625 0.109375l-6.109375 0q-0.28125 0 -0.40625 -0.109375q-0.109375 -0.109375 -0.109375 -0.265625q0 -0.15625 0.109375 -0.265625q0.109375 -0.109375 0.40625 -0.109375l1.875 0l0 -6.5l-1.4375 0q-0.28125 0 -0.40625 -0.109375q-0.109375 -0.109375 -0.109375 -0.28125q0 -0.171875 0.109375 -0.28125q0.125 -0.109375 0.40625 -0.109375l2.21875 0zm9.82373 0l0 1.171875q0.8125 -0.828125 1.46875 -1.140625q0.65625 -0.3125 1.484375 -0.3125q0.890625 0 1.625 0.375q0.515625 0.28125 0.9375 0.9375q0.421875 0.640625 0.421875 1.3125l0 4.90625l0.65625 0q0.28125 0 0.40625 0.109375q0.125 0.109375 0.125 0.28125q0 0.171875 -0.125 0.28125q-0.125 0.109375 -0.40625 0.109375l-2.078125 0q-0.296875 0 -0.421875 -0.109375q-0.109375 -0.109375 -0.109375 -0.28125q0 -0.171875 0.109375 -0.28125q0.125 -0.109375 0.421875 -0.109375l0.640625 0l0 -4.78125q0 -0.828125 -0.609375 -1.390625q-0.59375 -0.578125 -1.609375 -0.578125q-0.765625 0 -1.328125 0.3125q-0.5625 0.3125 -1.609375 1.546875l0 4.890625l0.875 0q0.28125 0 0.390625 0.109375q0.125 0.109375 0.125 0.28125q0 0.171875 -0.125 0.28125q-0.109375 0.109375 -0.390625 0.109375l-2.546875 0q-0.265625 0 -0.390625 -0.109375q-0.125 -0.109375 -0.125 -0.28125q0 -0.171875 0.125 -0.28125q0.125 -0.109375 0.390625 -0.109375l0.890625 0l0 -6.46875l-0.65625 0q-0.28125 0 -0.40625 -0.109375q-0.125 -0.109375 -0.125 -0.28125q0 -0.171875 0.125 -0.28125q0.125 -0.109375 0.40625 -0.109375l1.4375 0zm29.67871 4.03125q0 1.78125 -1.28125 3.046875q-1.28125 1.265625 -3.078125 1.265625q-1.8125 0 -3.09375 -1.265625q-1.265625 -1.28125 -1.265625 -3.046875q0 -1.78125 1.265625 -3.046875q1.28125 -1.265625 3.09375 -1.265625q1.796875 0 3.078125 1.265625q1.28125 1.25 1.28125 3.046875zm-0.796875 0q0 -1.46875 -1.046875 -2.5q-1.03125 -1.03125 -2.515625 -1.03125q-1.484375 0 -2.53125 1.046875q-1.046875 1.03125 -1.046875 2.484375q0 1.453125 1.046875 2.5q1.046875 1.03125 2.53125 1.03125q1.484375 0 2.515625 -1.03125q1.046875 -1.046875 1.046875 -2.5zm4.9018555 -7.640625l0 5.171875q1.40625 -1.84375 3.40625 -1.84375q1.703125 0 2.921875 1.25q1.21875 1.234375 1.21875 3.03125q0 1.8125 -1.234375 3.078125q-1.234375 1.265625 -2.90625 1.265625q-2.046875 0 -3.40625 -1.84375l0 1.53125l-1.828125 0q-0.28125 0 -0.40625 -0.109375q-0.109375 -0.109375 -0.109375 -0.28125q0 -0.171875 0.109375 -0.28125q0.125 -0.109375 0.40625 -0.109375l1.046875 0l0 -10.078125l-1.046875 0q-0.28125 0 -0.40625 -0.109375q-0.109375 -0.109375 -0.109375 -0.28125q0 -0.171875 0.109375 -0.28125q0.125 -0.109375 0.40625 -0.109375l1.828125 0zm6.765625 7.640625q0 -1.46875 -1.015625 -2.5q-1.015625 -1.03125 -2.359375 -1.03125q-1.359375 0 -2.375 1.03125q-1.0 1.03125 -1.0 2.5q0 1.46875 1.0 2.5q1.015625 1.03125 2.375 1.03125q1.34375 0 2.359375 -1.03125q1.015625 -1.03125 1.015625 -2.5zm8.683105 -8.03125l0 2.015625l-1.140625 0l0 -2.015625l1.140625 0zm0.046875 4.78125l-4.625 0q-0.28125 0 -0.40625 -0.109375q-0.109375 -0.109375 -0.109375 -0.28125q0 -0.171875 0.109375 -0.28125q0.125 -0.109375 0.40625 -0.109375l5.40625 0l0 8.578125q0 1.0 -0.40625 1.65625q-0.40625 0.671875 -1.21875 1.09375q-0.5625 0.28125 -1.34375 0.28125l-2.484375 0q-0.28125 0 -0.40625 -0.109375q-0.109375 -0.09375 -0.109375 -0.28125q0 -0.171875 0.109375 -0.28125q0.125 -0.109375 0.40625 -0.109375l2.453125 0q1.0 0 1.609375 -0.65625q0.609375 -0.640625 0.609375 -1.59375l0 -7.796875zm14.464355 3.421875l-7.953125 0q0.21875 1.515625 1.28125 2.4375q1.0625 0.921875 2.625 0.921875q0.875 0 1.828125 -0.28125q0.953125 -0.296875 1.5625 -0.765625q0.171875 -0.140625 0.296875 -0.140625q0.15625 0 0.265625 0.125q0.109375 0.109375 0.109375 0.265625q0 0.15625 -0.15625 0.296875q-0.4375 0.46875 -1.578125 0.875q-1.140625 0.40625 -2.328125 0.40625q-2.0 0 -3.34375 -1.3125q-1.34375 -1.3125 -1.34375 -3.1875q0 -1.6875 1.25 -2.90625q1.265625 -1.21875 3.125 -1.21875q1.90625 0 3.140625 1.25q1.234375 1.25 1.21875 3.234375zm-0.796875 -0.796875q-0.234375 -1.28125 -1.21875 -2.09375q-0.984375 -0.8125 -2.34375 -0.8125q-1.375 0 -2.359375 0.8125q-0.96875 0.796875 -1.21875 2.09375l7.140625 0zm11.22998 -2.625l0 -0.25q0 -0.296875 0.109375 -0.40625q0.109375 -0.125 0.28125 -0.125q0.171875 0 0.28125 0.125q0.109375 0.109375 0.109375 0.40625l0 1.75q0 0.296875 -0.109375 0.421875q-0.109375 0.109375 -0.28125 0.109375q-0.15625 0 -0.265625 -0.09375q-0.109375 -0.109375 -0.125 -0.359375q-0.0625 -0.671875 -0.875 -1.265625q-0.796875 -0.59375 -2.171875 -0.59375q-1.734375 0 -2.640625 1.09375q-0.90625 1.078125 -0.90625 2.484375q0 1.515625 0.984375 2.5q1.0 0.984375 2.578125 0.984375q0.921875 0 1.859375 -0.328125q0.9375 -0.34375 1.703125 -1.09375q0.1875 -0.171875 0.34375 -0.171875q0.15625 0 0.265625 0.109375q0.109375 0.09375 0.109375 0.25q0 0.40625 -0.9375 1.015625q-1.515625 1.0 -3.375 1.0q-1.875 0 -3.09375 -1.203125q-1.203125 -1.203125 -1.203125 -3.046875q0 -1.890625 1.234375 -3.125q1.234375 -1.25 3.125 -1.25q1.78125 0 3.0 1.0625zm6.5424805 -0.78125l4.234375 0q0.28125 0 0.390625 0.109375q0.125 0.109375 0.125 0.28125q0 0.171875 -0.125 0.28125q-0.109375 0.109375 -0.390625 0.109375l-4.234375 0l0 5.1875q0 0.6875 0.546875 1.140625q0.546875 0.453125 1.59375 0.453125q0.78125 0 1.703125 -0.234375q0.921875 -0.25 1.4375 -0.546875q0.1875 -0.109375 0.296875 -0.109375q0.15625 0 0.265625 0.125q0.109375 0.109375 0.109375 0.265625q0 0.140625 -0.125 0.25q-0.296875 0.3125 -1.4375 0.671875q-1.140625 0.359375 -2.1875 0.359375q-1.375 0 -2.1875 -0.640625q-0.796875 -0.640625 -0.796875 -1.734375l0 -5.1875l-1.4375 0q-0.28125 0 -0.40625 -0.109375q-0.109375 -0.109375 -0.109375 -0.28125q0 -0.171875 0.109375 -0.28125q0.125 -0.109375 0.40625 -0.109375l1.4375 0l0 -2.296875q0 -0.28125 0.109375 -0.40625q0.109375 -0.125 0.28125 -0.125q0.171875 0 0.28125 0.125q0.109375 0.125 0.109375 0.40625l0 2.296875z" fill-rule="nonzero"/><path fill="#000000" fill-opacity="0.0" d="m108.37795 168.88583l159.24408 0l0 39.55905l-159.24408 0z" fill-rule="evenodd"/><path stroke="#000000" stroke-width="1.0" stroke-linejoin="round" stroke-linecap="butt" d="m108.37795 168.88583l159.24408 0l0 39.55905l-159.24408 0z" fill-rule="evenodd"/><path fill="#000000" d="m157.28828 195.11661q-0.25 0.28125 -0.40625 0.375q-0.140625 0.078125 -0.359375 0.078125q-0.4375 0 -0.703125 -0.28125q-0.25 -0.296875 -0.25 -0.953125l0 -1.265625q0 -0.671875 0.25 -0.953125q0.265625 -0.296875 0.703125 -0.296875q0.328125 0 0.546875 0.171875q0.21875 0.171875 0.328125 0.578125q0.125 0.40625 0.265625 0.5625q0.25 0.28125 0.921875 0.578125q0.6875 0.28125 1.484375 0.28125q1.25 0 2.046875 -0.578125q0.515625 -0.359375 0.515625 -0.875q0 -0.34375 -0.25 -0.65625q-0.25 -0.3125 -0.796875 -0.5q-0.359375 -0.140625 -1.640625 -0.375q-1.515625 -0.28125 -2.3125 -0.6875q-0.78125 -0.40625 -1.234375 -1.125q-0.453125 -0.734375 -0.453125 -1.578125q0 -1.34375 1.109375 -2.34375q1.125 -1.015625 2.921875 -1.015625q0.71875 0 1.328125 0.171875q0.625 0.15625 1.125 0.484375q0.359375 -0.359375 0.734375 -0.359375q0.40625 0 0.65625 0.296875q0.265625 0.28125 0.265625 0.9375l0 1.40625q0 0.671875 -0.265625 0.96875q-0.25 0.28125 -0.65625 0.28125q-0.34375 0 -0.609375 -0.203125q-0.203125 -0.15625 -0.296875 -0.625q-0.09375 -0.46875 -0.25 -0.671875q-0.265625 -0.34375 -0.796875 -0.578125q-0.53125 -0.234375 -1.21875 -0.234375q-1.015625 0 -1.609375 0.46875q-0.578125 0.46875 -0.578125 0.984375q0 0.34375 0.234375 0.671875q0.25 0.3125 0.71875 0.5q0.296875 0.125 1.734375 0.40625q1.4375 0.28125 2.203125 0.625q0.78125 0.328125 1.28125 1.046875q0.515625 0.71875 0.515625 1.71875q0 1.375 -0.984375 2.21875q-1.28125 1.078125 -3.296875 1.078125q-0.765625 0 -1.5 -0.1875q-0.734375 -0.171875 -1.421875 -0.546875zm18.773697 -3.515625q0 1.078125 -0.609375 2.09375q-0.59375 1.0 -1.78125 1.59375q-1.171875 0.59375 -2.453125 0.59375q-1.265625 0 -2.4375 -0.578125q-1.171875 -0.59375 -1.78125 -1.59375q-0.609375 -1.015625 -0.609375 -2.125q0 -1.125 0.609375 -2.203125q0.625 -1.078125 1.78125 -1.6875q1.171875 -0.625 2.4375 -0.625q1.28125 0 2.453125 0.640625q1.1875 0.625 1.78125 1.703125q0.609375 1.0625 0.609375 2.1875zm-1.875 0.015625q0 -0.90625 -0.640625 -1.65625q-0.890625 -1.03125 -2.328125 -1.03125q-1.265625 0 -2.109375 0.8125q-0.84375 0.8125 -0.84375 1.875q0 0.875 0.84375 1.640625q0.859375 0.765625 2.109375 0.765625q1.265625 0 2.109375 -0.765625q0.859375 -0.765625 0.859375 -1.640625zm12.179947 -4.296875l0 6.390625q0.59375 0 0.875 0.265625q0.28125 0.265625 0.28125 0.6875q0 0.40625 -0.296875 0.671875q-0.28125 0.25 -0.953125 0.25l-1.765625 0l0 -0.421875q-0.8125 0.359375 -1.546875 0.53125q-0.71875 0.1875 -1.375 0.1875q-0.921875 0 -1.59375 -0.375q-0.671875 -0.390625 -1.0625 -1.078125q-0.28125 -0.5 -0.28125 -1.234375l0 -4.015625l-0.328125 0q-0.671875 0 -0.96875 -0.25q-0.28125 -0.265625 -0.28125 -0.6875q0 -0.40625 0.28125 -0.65625q0.296875 -0.265625 0.96875 -0.265625l2.1875 0l0 5.546875q0 0.59375 0.28125 0.875q0.296875 0.28125 0.890625 0.28125q0.5625 0 1.203125 -0.21875q0.65625 -0.234375 1.625 -0.8125l0 -3.8125l-0.6875 0q-0.671875 0 -0.953125 -0.25q-0.28125 -0.265625 -0.28125 -0.6875q0 -0.40625 0.28125 -0.65625q0.28125 -0.265625 0.953125 -0.265625l2.546875 0zm6.836197 0l0 1.15625q1.1875 -0.84375 1.859375 -1.125q0.6875 -0.28125 1.265625 -0.28125q0.921875 0 1.78125 0.671875q0.578125 0.453125 0.578125 0.921875q0 0.40625 -0.28125 0.6875q-0.28125 0.28125 -0.671875 0.28125q-0.34375 0 -0.734375 -0.34375q-0.375 -0.359375 -0.671875 -0.359375q-0.390625 0 -1.171875 0.5q-0.78125 0.484375 -1.953125 1.46875l0 2.8125l2.671875 0q0.671875 0 0.953125 0.265625q0.296875 0.265625 0.296875 0.6875q0 0.40625 -0.296875 0.671875q-0.28125 0.25 -0.953125 0.25l-5.640625 0q-0.671875 0 -0.96875 -0.25q-0.28125 -0.265625 -0.28125 -0.6875q0 -0.40625 0.28125 -0.671875q0.296875 -0.265625 0.96875 -0.265625l1.109375 0l0 -4.53125l-0.671875 0q-0.671875 0 -0.96875 -0.25q-0.28125 -0.265625 -0.28125 -0.6875q0 -0.40625 0.28125 -0.65625q0.296875 -0.265625 0.96875 -0.265625l2.53125 0zm14.508072 0.328125q0.328125 -0.3125 0.6875 -0.3125q0.390625 0 0.65625 0.296875q0.265625 0.28125 0.265625 0.9375l0 1.203125q0 0.671875 -0.265625 0.953125q-0.265625 0.28125 -0.671875 0.28125q-0.390625 0 -0.65625 -0.21875q-0.1875 -0.15625 -0.296875 -0.65625q-0.109375 -0.515625 -0.53125 -0.765625q-0.734375 -0.4375 -1.875 -0.4375q-1.328125 0 -2.125 0.78125q-0.796875 0.78125 -0.796875 1.953125q0 1.09375 0.765625 1.734375q0.765625 0.625 2.546875 0.625q1.15625 0 1.890625 -0.234375q0.4375 -0.140625 0.828125 -0.484375q0.40625 -0.359375 0.71875 -0.359375q0.375 0 0.65625 0.28125q0.28125 0.28125 0.28125 0.671875q0 0.609375 -0.84375 1.171875q-1.265625 0.828125 -3.6875 0.828125q-2.171875 0 -3.390625 -0.90625q-1.640625 -1.203125 -1.640625 -3.3125q0 -2.0 1.328125 -3.296875q1.34375 -1.3125 3.484375 -1.3125q0.765625 0 1.421875 0.15625q0.671875 0.140625 1.25 0.421875zm12.961197 4.75l-7.65625 0q0.296875 0.734375 1.03125 1.1875q0.75 0.4375 2.015625 0.4375q1.03125 0 2.75 -0.453125q0.71875 -0.1875 0.984375 -0.1875q0.375 0 0.625 0.265625q0.265625 0.265625 0.265625 0.671875q0 0.359375 -0.28125 0.625q-0.359375 0.328125 -1.78125 0.640625q-1.40625 0.296875 -2.703125 0.296875q-2.25 0 -3.59375 -1.265625q-1.34375 -1.265625 -1.34375 -3.109375q0 -1.96875 1.453125 -3.203125q1.453125 -1.234375 3.359375 -1.234375q1.140625 0 2.078125 0.40625q0.953125 0.390625 1.421875 0.859375q0.65625 0.671875 1.09375 1.671875q0.28125 0.6875 0.28125 1.59375l0 0.796875zm-2.0625 -1.875q-0.4375 -0.796875 -1.125 -1.1875q-0.6875 -0.40625 -1.640625 -0.40625q-0.953125 0 -1.65625 0.40625q-0.6875 0.390625 -1.125 1.1875l5.546875 0z" fill-rule="nonzero"/><path fill="#000000" fill-opacity="0.0" d="m267.62204 188.66536l58.551178 80.44093" fill-rule="evenodd"/><path stroke="#595959" stroke-width="1.0" stroke-linejoin="round" stroke-linecap="butt" d="m267.62204 188.66536l55.020233 75.58992" fill-rule="evenodd"/><path fill="#595959" stroke="#595959" stroke-width="1.0" stroke-linecap="butt" d="m321.30685 265.22733l4.0060425 2.6970215l-1.3351746 -4.6411133z" fill-rule="evenodd"/><path fill="#000000" fill-opacity="0.0" d="m108.37795 224.88583l159.24408 0l0 39.55905l-159.24408 0z" fill-rule="evenodd"/><path stroke="#000000" stroke-width="1.0" stroke-linejoin="round" stroke-linecap="butt" d="m108.37795 224.88583l159.24408 0l0 39.55905l-159.24408 0z" fill-rule="evenodd"/><path fill="#000000" d="m130.73686 246.99161l0 2.71875l1.921875 0q0.671875 0 0.953125 0.265625q0.296875 0.265625 0.296875 0.6875q0 0.40625 -0.296875 0.671875q-0.28125 0.25 -0.953125 0.25l-4.078125 0q-0.6718826 0 -0.9687576 -0.25q-0.28125 -0.265625 -0.28125 -0.6875q0 -0.40625 0.296875 -0.671875q0.296875 -0.265625 0.9531326 -0.265625l0.296875 0l0 -7.296875l-0.296875 0q-0.6718826 0 -0.9687576 -0.25q-0.28125 -0.265625 -0.28125 -0.6875q0 -0.421875 0.28125 -0.671875q0.296875 -0.265625 0.9687576 -0.265625l8.796875 0l0 2.859375q0 0.65625 -0.265625 0.953125q-0.25 0.28125 -0.671875 0.28125q-0.421875 0 -0.6875 -0.28125q-0.25 -0.28125 -0.25 -0.953125l0 -0.984375l-4.765625 0l0 2.703125l1.640625 0q0 -0.734375 0.140625 -0.9375q0.28125 -0.453125 0.796875 -0.453125q0.421875 0 0.671875 0.296875q0.265625 0.28125 0.265625 0.953125l0 2.15625q0 0.671875 -0.265625 0.96875q-0.25 0.28125 -0.671875 0.28125q-0.515625 0 -0.796875 -0.453125q-0.140625 -0.203125 -0.140625 -0.9375l-1.640625 0zm13.148697 -7.21875l0 1.96875l-2.21875 0l0 -1.96875l2.21875 0zm0.25 3.546875l0 6.390625l2.25 0q0.671875 0 0.953125 0.265625q0.296875 0.265625 0.296875 0.6875q0 0.40625 -0.296875 0.671875q-0.28125 0.25 -0.953125 0.25l-6.359375 0q-0.671875 0 -0.953125 -0.25q-0.28125 -0.265625 -0.28125 -0.6875q0 -0.40625 0.28125 -0.671875q0.28125 -0.265625 0.953125 -0.265625l2.25 0l0 -4.53125l-1.5 0q-0.671875 0 -0.96875 -0.25q-0.28125 -0.265625 -0.28125 -0.6875q0 -0.40625 0.28125 -0.65625q0.296875 -0.265625 0.96875 -0.265625l3.359375 0zm14.961197 5.078125l-7.65625 0q0.296875 0.734375 1.03125 1.1875q0.75 0.4375 2.015625 0.4375q1.03125 0 2.75 -0.453125q0.71875 -0.1875 0.984375 -0.1875q0.375 0 0.625 0.265625q0.265625 0.265625 0.265625 0.671875q0 0.359375 -0.28125 0.625q-0.359375 0.328125 -1.78125 0.640625q-1.40625 0.296875 -2.703125 0.296875q-2.25 0 -3.59375 -1.265625q-1.34375 -1.265625 -1.34375 -3.109375q0 -1.96875 1.453125 -3.203125q1.453125 -1.234375 3.359375 -1.234375q1.140625 0 2.078125 0.40625q0.953125 0.390625 1.421875 0.859375q0.65625 0.671875 1.09375 1.671875q0.28125 0.6875 0.28125 1.59375l0 0.796875zm-2.0625 -1.875q-0.4375 -0.796875 -1.125 -1.1875q-0.6875 -0.40625 -1.640625 -0.40625q-0.953125 0 -1.65625 0.40625q-0.6875 0.390625 -1.125 1.1875l5.546875 0zm9.508072 -6.75l0 9.9375l2.234375 0q0.6875 0 0.96875 0.265625q0.28125 0.265625 0.28125 0.6875q0 0.40625 -0.28125 0.671875q-0.28125 0.25 -0.96875 0.25l-6.34375 0q-0.671875 0 -0.96875 -0.25q-0.28125 -0.265625 -0.28125 -0.6875q0 -0.40625 0.28125 -0.671875q0.296875 -0.265625 0.96875 -0.265625l2.25 0l0 -8.078125l-1.515625 0q-0.65625 0 -0.953125 -0.25q-0.296875 -0.265625 -0.296875 -0.6875q0 -0.40625 0.28125 -0.65625q0.296875 -0.265625 0.96875 -0.265625l3.375 0zm14.554947 0l0 9.9375l0.3125 0q0.671875 0 0.953125 0.265625q0.296875 0.265625 0.296875 0.6875q0 0.40625 -0.296875 0.671875q-0.28125 0.25 -0.953125 0.25l-2.1875 0l0 -0.453125q-0.640625 0.375 -1.34375 0.5625q-0.6875 0.1875 -1.4375 0.1875q-2.09375 0 -3.390625 -1.203125q-1.28125 -1.21875 -1.28125 -3.03125q0 -1.90625 1.34375 -3.234375q1.359375 -1.34375 3.296875 -1.34375q0.734375 0 1.421875 0.21875q0.703125 0.21875 1.390625 0.671875l0 -2.328125l-0.3125 0q-0.6875 0 -0.96875 -0.25q-0.28125 -0.265625 -0.28125 -0.671875q0 -0.421875 0.28125 -0.671875q0.28125 -0.265625 0.96875 -0.265625l2.1875 0zm-1.875 7.921875q0 -1.15625 -0.8125 -1.953125q-0.8125 -0.8125 -1.984375 -0.8125q-1.171875 0 -1.984375 0.8125q-0.796875 0.796875 -0.796875 1.921875q0 1.03125 0.71875 1.703125q0.734375 0.65625 2.0625 0.65625q1.328125 0 2.0625 -0.65625q0.734375 -0.671875 0.734375 -1.671875zm14.023697 -1.625q0 2.484375 -1.59375 4.140625q-1.578125 1.640625 -3.640625 1.640625q-1.875 0 -3.375 -1.375q-1.859375 -1.703125 -1.859375 -4.40625q0 -2.71875 1.859375 -4.4375q1.5 -1.375 3.375 -1.375q2.0625 0 3.640625 1.65625q1.59375 1.65625 1.59375 4.15625zm-1.875 0q0 -1.703125 -1.03125 -2.8125q-1.015625 -1.125 -2.328125 -1.125q-1.3125 0 -2.34375 1.125q-1.03125 1.109375 -1.03125 2.8125q0 1.6875 1.03125 2.8125q1.03125 1.109375 2.34375 1.109375q1.3125 0 2.328125 -1.109375q1.03125 -1.109375 1.03125 -2.8125zm7.804947 -0.890625l0 4.53125l2.671875 0q0.671875 0 0.953125 0.265625q0.28125 0.265625 0.28125 0.6875q0 0.40625 -0.28125 0.671875q-0.28125 0.25 -0.953125 0.25l-5.640625 0q-0.671875 0 -0.96875 -0.25q-0.28125 -0.265625 -0.28125 -0.6875q0 -0.40625 0.28125 -0.671875q0.296875 -0.265625 0.96875 -0.265625l1.109375 0l0 -4.53125l-0.890625 0q-0.671875 0 -0.96875 -0.25q-0.28125 -0.265625 -0.28125 -0.6875q0 -0.40625 0.28125 -0.65625q0.296875 -0.265625 0.96875 -0.265625l0.890625 0l0 -0.71875q0 -1.21875 0.90625 -2.015625q0.921875 -0.8125 2.65625 -0.8125q0.78125 0 1.796875 0.140625q1.015625 0.140625 1.296875 0.40625q0.296875 0.25 0.296875 0.640625q0 0.4375 -0.265625 0.703125q-0.25 0.265625 -0.625 0.265625q-0.171875 0 -0.515625 -0.0625q-1.15625 -0.234375 -2.046875 -0.234375q-0.9375 0 -1.296875 0.28125q-0.34375 0.28125 -0.34375 0.6875l0 0.71875l2.890625 0q0.671875 0 0.953125 0.265625q0.28125 0.25 0.28125 0.671875q0 0.40625 -0.28125 0.671875q-0.28125 0.25 -0.953125 0.25l-2.890625 0zm11.211197 3.6875l2.703125 -6.453125l-0.421875 0q-0.671875 0 -0.96875 -0.25q-0.28125 -0.265625 -0.28125 -0.6875q0 -0.421875 0.28125 -0.671875q0.296875 -0.265625 0.96875 -0.265625l2.5 0q0.671875 0 0.953125 0.265625q0.296875 0.25 0.296875 0.671875q0 0.5 -0.4375 0.796875q-0.203125 0.140625 -0.859375 0.140625l-3.828125 9.171875l-1.796875 0l-3.828125 -9.171875q-0.65625 0 -0.859375 -0.140625q-0.4375 -0.28125 -0.4375 -0.796875q0 -0.421875 0.28125 -0.671875q0.28125 -0.265625 0.953125 -0.265625l2.53125 0q0.671875 0 0.953125 0.265625q0.28125 0.25 0.28125 0.671875q0 0.421875 -0.28125 0.6875q-0.28125 0.25 -0.953125 0.25l-0.4375 0l2.6875 6.453125zm11.867447 -9.09375l0 1.96875l-2.21875 0l0 -1.96875l2.21875 0zm0.25 3.546875l0 6.390625l2.25 0q0.671875 0 0.953125 0.265625q0.296875 0.265625 0.296875 0.6875q0 0.40625 -0.296875 0.671875q-0.28125 0.25 -0.953125 0.25l-6.359375 0q-0.671875 0 -0.953125 -0.25q-0.28125 -0.265625 -0.28125 -0.6875q0 -0.40625 0.28125 -0.671875q0.28125 -0.265625 0.953125 -0.265625l2.25 0l0 -4.53125l-1.5 0q-0.671875 0 -0.96875 -0.25q-0.28125 -0.265625 -0.28125 -0.6875q0 -0.40625 0.28125 -0.65625q0.296875 -0.265625 0.96875 -0.265625l3.359375 0zm14.961197 5.078125l-7.65625 0q0.296875 0.734375 1.03125 1.1875q0.75 0.4375 2.015625 0.4375q1.03125 0 2.75 -0.453125q0.71875 -0.1875 0.984375 -0.1875q0.375 0 0.625 0.265625q0.265625 0.265625 0.265625 0.671875q0 0.359375 -0.28125 0.625q-0.359375 0.328125 -1.78125 0.640625q-1.40625 0.296875 -2.703125 0.296875q-2.25 0 -3.59375 -1.265625q-1.34375 -1.265625 -1.34375 -3.109375q0 -1.96875 1.453125 -3.203125q1.453125 -1.234375 3.359375 -1.234375q1.140625 0 2.078125 0.40625q0.953125 0.390625 1.421875 0.859375q0.65625 0.671875 1.09375 1.671875q0.28125 0.6875 0.28125 1.59375l0 0.796875zm-2.0625 -1.875q-0.4375 -0.796875 -1.125 -1.1875q-0.6875 -0.40625 -1.640625 -0.40625q-0.953125 0 -1.65625 0.40625q-0.6875 0.390625 -1.125 1.1875l5.546875 0zm8.586197 1.625l-1.296875 3.4375l-1.75 0l-1.5625 -6.40625q-0.515625 -0.03125 -0.78125 -0.28125q-0.25 -0.265625 -0.25 -0.65625q0 -0.40625 0.28125 -0.65625q0.28125 -0.265625 0.96875 -0.265625l1.734375 0q0.671875 0 0.953125 0.265625q0.296875 0.25 0.296875 0.671875q0 0.40625 -0.328125 0.703125q-0.25 0.21875 -0.96875 0.21875l0.703125 2.96875l1.15625 -3.046875l1.671875 0l1.15625 3.046875l0.734375 -2.96875q-0.6875 0 -0.90625 -0.140625q-0.4375 -0.28125 -0.4375 -0.796875q0 -0.40625 0.28125 -0.65625q0.28125 -0.265625 0.953125 -0.265625l1.765625 0q0.671875 0 0.953125 0.265625q0.296875 0.25 0.296875 0.671875q0 0.375 -0.25 0.640625q-0.25 0.25 -0.75 0.28125l-1.53125 6.40625l-1.71875 0l-1.375 -3.4375z" fill-rule="nonzero"/><path fill="#000000" fill-opacity="0.0" d="m108.37795 276.98557l159.24408 0l0 39.55905l-159.24408 0z" fill-rule="evenodd"/><path stroke="#000000" stroke-width="1.0" stroke-linejoin="round" stroke-linecap="butt" d="m108.37795 276.98557l159.24408 0l0 39.55905l-159.24408 0z" fill-rule="evenodd"/><path fill="#000000" d="m138.55339 294.5132l0 7.296875l1.890625 0q0.671875 0 0.953125 0.265625q0.296875 0.265625 0.296875 0.6875q0 0.40625 -0.296875 0.671875q-0.28125 0.25 -0.953125 0.25l-5.640625 0q-0.671875 0 -0.96875 -0.25q-0.28125 -0.265625 -0.28125 -0.6875q0 -0.40625 0.28125 -0.671875q0.296875 -0.265625 0.96875 -0.265625l1.890625 0l0 -7.296875l-1.890625 0q-0.671875 0 -0.96875 -0.25q-0.28125 -0.265625 -0.28125 -0.6875q0 -0.421875 0.28125 -0.671875q0.296875 -0.265625 0.96875 -0.265625l5.640625 0q0.671875 0 0.953125 0.265625q0.296875 0.25 0.296875 0.671875q0 0.421875 -0.296875 0.6875q-0.28125 0.25 -0.953125 0.25l-1.890625 0zm7.383072 0.90625l0 0.515625q0.453125 -0.4375 0.8125 -0.609375q0.375 -0.171875 0.859375 -0.171875q0.40625 0 0.8125 0.203125q0.40625 0.203125 0.78125 0.609375q0.484375 -0.40625 0.96875 -0.59375q0.5 -0.203125 1.03125 -0.203125q1.03125 0 1.6875 0.546875q0.84375 0.734375 0.84375 1.921875l0 4.171875q0.59375 0 0.875 0.265625q0.28125 0.265625 0.28125 0.6875q0 0.40625 -0.28125 0.671875q-0.28125 0.25 -0.953125 0.25l-1.78125 0l0 -5.890625q0 -0.4375 -0.15625 -0.59375q-0.15625 -0.171875 -0.46875 -0.171875q-0.3125 0 -0.578125 0.171875q-0.34375 0.21875 -0.828125 0.859375l0 3.75q0.59375 0 0.875 0.265625q0.28125 0.265625 0.28125 0.6875q0 0.40625 -0.28125 0.671875q-0.28125 0.25 -0.953125 0.25l-1.78125 0l0 -5.890625q0 -0.421875 -0.15625 -0.59375q-0.15625 -0.171875 -0.484375 -0.171875q-0.328125 0 -0.65625 0.21875q-0.3125 0.203125 -0.75 0.8125l0 3.75q0.578125 0 0.859375 0.265625q0.296875 0.265625 0.296875 0.6875q0 0.40625 -0.296875 0.671875q-0.28125 0.25 -0.953125 0.25l-1.6875 0q-0.671875 0 -0.953125 -0.25q-0.296875 -0.265625 -0.296875 -0.6875q0 -0.40625 0.28125 -0.671875q0.28125 -0.265625 0.875 -0.265625l0 -4.53125q-0.59375 0 -0.875 -0.265625q-0.28125 -0.265625 -0.28125 -0.671875q0 -0.40625 0.296875 -0.65625q0.28125 -0.265625 0.953125 -0.265625l1.78125 0zm15.758072 8.265625l0 -0.4375q-0.703125 0.375 -1.5625 0.5625q-0.84375 0.1875 -1.53125 0.1875q-1.5 0 -2.4375 -0.796875q-0.9375 -0.796875 -0.9375 -1.765625q0 -1.171875 1.1875 -2.171875q1.203125 -1.015625 3.3125 -1.015625q0.859375 0 1.96875 0.1875l0 -0.453125q0 -0.421875 -0.359375 -0.6875q-0.359375 -0.265625 -1.375 -0.265625q-0.828125 0 -2.15625 0.328125q-0.484375 0.125 -0.765625 0.125q-0.359375 0 -0.625 -0.265625q-0.265625 -0.265625 -0.265625 -0.6875q0 -0.234375 0.09375 -0.40625q0.09375 -0.1875 0.25 -0.28125q0.171875 -0.109375 0.6875 -0.25q0.703125 -0.203125 1.421875 -0.3125q0.71875 -0.109375 1.296875 -0.109375q1.734375 0 2.6875 0.75q0.96875 0.75 0.96875 2.046875l0 3.84375l0.328125 0q0.671875 0 0.953125 0.265625q0.296875 0.265625 0.296875 0.6875q0 0.40625 -0.296875 0.671875q-0.28125 0.25 -0.953125 0.25l-2.1875 0zm0 -3.34375q-1.125 -0.21875 -2.078125 -0.21875q-1.125 0 -1.953125 0.5625q-0.515625 0.34375 -0.515625 0.71875q0 0.265625 0.25 0.421875q0.453125 0.296875 1.25 0.296875q0.671875 0 1.515625 -0.265625q0.859375 -0.265625 1.53125 -0.71875l0 -0.796875zm11.570572 -4.375l0 -0.546875l2.1875 0q0.671875 0 0.953125 0.265625q0.296875 0.25 0.296875 0.671875q0 0.40625 -0.296875 0.671875q-0.28125 0.25 -0.953125 0.25l-0.328125 0l0 6.796875q0 0.984375 -0.421875 1.71875q-0.40625 0.734375 -1.265625 1.265625q-0.84375 0.53125 -1.921875 0.53125l-2.109375 0q-0.6875 0 -0.96875 -0.265625q-0.28125 -0.265625 -0.28125 -0.671875q0 -0.421875 0.28125 -0.6875q0.28125 -0.25 0.96875 -0.25l2.046875 0q0.859375 0 1.328125 -0.46875q0.484375 -0.453125 0.484375 -1.171875l0 -0.90625q-0.625 0.390625 -1.265625 0.59375q-0.640625 0.203125 -1.3125 0.203125q-1.90625 0 -3.203125 -1.265625q-1.28125 -1.28125 -1.28125 -3.140625q0 -1.875 1.28125 -3.140625q1.296875 -1.28125 3.203125 -1.28125q0.703125 0 1.34375 0.203125q0.640625 0.203125 1.234375 0.625zm-0.015625 3.578125q0 -1.03125 -0.765625 -1.78125q-0.75 -0.75 -1.8125 -0.75q-1.078125 0 -1.84375 0.75q-0.75 0.75 -0.75 1.78125q0 1.046875 0.75 1.796875q0.765625 0.75 1.84375 0.75q1.0625 0 1.8125 -0.75q0.765625 -0.75 0.765625 -1.796875zm13.836197 0.953125l-7.65625 0q0.296875 0.734375 1.03125 1.1875q0.75 0.4375 2.015625 0.4375q1.03125 0 2.75 -0.453125q0.71875 -0.1875 0.984375 -0.1875q0.375 0 0.625 0.265625q0.265625 0.265625 0.265625 0.671875q0 0.359375 -0.28125 0.625q-0.359375 0.328125 -1.78125 0.640625q-1.40625 0.296875 -2.703125 0.296875q-2.25 0 -3.59375 -1.265625q-1.34375 -1.265625 -1.34375 -3.109375q0 -1.96875 1.453125 -3.203125q1.453125 -1.234375 3.359375 -1.234375q1.140625 0 2.078125 0.40625q0.953125 0.390625 1.421875 0.859375q0.65625 0.671875 1.09375 1.671875q0.28125 0.6875 0.28125 1.59375l0 0.796875zm-2.0625 -1.875q-0.4375 -0.796875 -1.125 -1.1875q-0.6875 -0.40625 -1.640625 -0.40625q-0.953125 0 -1.65625 0.40625q-0.6875 0.390625 -1.125 1.1875l5.546875 0zm7.492447 1.265625l0 1.921875l1.890625 0q0.671875 0 0.953125 0.265625q0.296875 0.265625 0.296875 0.6875q0 0.40625 -0.296875 0.671875q-0.28125 0.25 -0.953125 0.25l-4.046875 0q-0.671875 0 -0.96875 -0.25q-0.28125 -0.265625 -0.28125 -0.6875q0 -0.40625 0.28125 -0.671875q0.296875 -0.265625 0.96875 -0.265625l0.296875 0l0 -7.296875l-0.296875 0q-0.671875 0 -0.96875 -0.25q-0.28125 -0.265625 -0.28125 -0.6875q0 -0.421875 0.28125 -0.671875q0.296875 -0.265625 0.96875 -0.265625l4.296875 0q1.890625 0 3.0 1.046875q1.109375 1.03125 1.109375 2.515625q0 0.8125 -0.375 1.546875q-0.28125 0.546875 -0.9375 1.078125q-0.65625 0.53125 -1.34375 0.796875q-0.6875 0.265625 -1.828125 0.265625l-1.765625 0zm0 -1.859375l1.734375 0q1.21875 0 1.9375 -0.546875q0.71875 -0.5625 0.71875 -1.328125q0 -0.65625 -0.578125 -1.140625q-0.578125 -0.5 -1.65625 -0.5l-2.15625 0l0 3.515625zm13.211197 -6.15625l0 9.9375l2.234375 0q0.6875 0 0.96875 0.265625q0.28125 0.265625 0.28125 0.6875q0 0.40625 -0.28125 0.671875q-0.28125 0.25 -0.96875 0.25l-6.34375 0q-0.671875 0 -0.96875 -0.25q-0.28125 -0.265625 -0.28125 -0.6875q0 -0.40625 0.28125 -0.671875q0.296875 -0.265625 0.96875 -0.265625l2.25 0l0 -8.078125l-1.515625 0q-0.65625 0 -0.953125 -0.25q-0.296875 -0.265625 -0.296875 -0.6875q0 -0.40625 0.28125 -0.65625q0.296875 -0.265625 0.96875 -0.265625l3.375 0zm11.945572 11.8125l0 -0.4375q-0.703125 0.375 -1.5625 0.5625q-0.84375 0.1875 -1.53125 0.1875q-1.5 0 -2.4375 -0.796875q-0.9375 -0.796875 -0.9375 -1.765625q0 -1.171875 1.1875 -2.171875q1.203125 -1.015625 3.3125 -1.015625q0.859375 0 1.96875 0.1875l0 -0.453125q0 -0.421875 -0.359375 -0.6875q-0.359375 -0.265625 -1.375 -0.265625q-0.828125 0 -2.15625 0.328125q-0.484375 0.125 -0.765625 0.125q-0.359375 0 -0.625 -0.265625q-0.265625 -0.265625 -0.265625 -0.6875q0 -0.234375 0.09375 -0.40625q0.09375 -0.1875 0.25 -0.28125q0.171875 -0.109375 0.6875 -0.25q0.703125 -0.203125 1.421875 -0.3125q0.71875 -0.109375 1.296875 -0.109375q1.734375 0 2.6875 0.75q0.96875 0.75 0.96875 2.046875l0 3.84375l0.328125 0q0.671875 0 0.953125 0.265625q0.296875 0.265625 0.296875 0.6875q0 0.40625 -0.296875 0.671875q-0.28125 0.25 -0.953125 0.25l-2.1875 0zm0 -3.34375q-1.125 -0.21875 -2.078125 -0.21875q-1.125 0 -1.953125 0.5625q-0.515625 0.34375 -0.515625 0.71875q0 0.265625 0.25 0.421875q0.453125 0.296875 1.25 0.296875q0.671875 0 1.515625 -0.265625q0.859375 -0.265625 1.53125 -0.71875l0 -0.796875zm7.617447 -4.921875l0 0.625q0.515625 -0.4375 1.125 -0.65625q0.625 -0.21875 1.34375 -0.21875q1.65625 0 2.625 1.03125q0.765625 0.8125 0.765625 2.140625l0 3.46875q0.578125 0 0.859375 0.265625q0.296875 0.265625 0.296875 0.6875q0 0.40625 -0.296875 0.671875q-0.28125 0.25 -0.953125 0.25l-1.6875 0q-0.671875 0 -0.96875 -0.25q-0.28125 -0.265625 -0.28125 -0.6875q0 -0.40625 0.28125 -0.671875q0.28125 -0.265625 0.875 -0.265625l0 -3.515625q0 -0.609375 -0.328125 -0.890625q-0.421875 -0.375 -1.28125 -0.375q-0.65625 0 -1.140625 0.25q-0.484375 0.25 -1.234375 1.0625l0 3.46875q0.71875 0 0.9375 0.140625q0.4375 0.28125 0.4375 0.8125q0 0.40625 -0.28125 0.671875q-0.28125 0.25 -0.96875 0.25l-2.109375 0q-0.6875 0 -0.96875 -0.25q-0.28125 -0.265625 -0.28125 -0.6875q0 -0.515625 0.4375 -0.796875q0.21875 -0.140625 0.9375 -0.140625l0 -4.53125q-0.59375 0 -0.875 -0.265625q-0.28125 -0.265625 -0.28125 -0.671875q0 -0.40625 0.28125 -0.65625q0.28125 -0.265625 0.96875 -0.265625l1.765625 0zm17.773697 5.078125l-7.65625 0q0.296875 0.734375 1.03125 1.1875q0.75 0.4375 2.015625 0.4375q1.03125 0 2.75 -0.453125q0.71875 -0.1875 0.984375 -0.1875q0.375 0 0.625 0.265625q0.265625 0.265625 0.265625 0.671875q0 0.359375 -0.28125 0.625q-0.359375 0.328125 -1.78125 0.640625q-1.40625 0.296875 -2.703125 0.296875q-2.25 0 -3.59375 -1.265625q-1.34375 -1.265625 -1.34375 -3.109375q0 -1.96875 1.453125 -3.203125q1.453125 -1.234375 3.359375 -1.234375q1.140625 0 2.078125 0.40625q0.953125 0.390625 1.421875 0.859375q0.65625 0.671875 1.09375 1.671875q0.28125 0.6875 0.28125 1.59375l0 0.796875zm-2.0625 -1.875q-0.4375 -0.796875 -1.125 -1.1875q-0.6875 -0.40625 -1.640625 -0.40625q-0.953125 0 -1.65625 0.40625q-0.6875 0.390625 -1.125 1.1875l5.546875 0z" fill-rule="nonzero"/><path fill="#000000" fill-opacity="0.0" d="m108.37795 331.5551l159.24408 0l0 39.55905l-159.24408 0z" fill-rule="evenodd"/><path stroke="#000000" stroke-width="1.0" stroke-linejoin="round" stroke-linecap="butt" d="m108.37795 331.5551l159.24408 0l0 39.55905l-159.24408 0z" fill-rule="evenodd"/><path fill="#000000" d="m144.63959 356.37964l0 -7.296875q-0.59375 -0.015625 -0.875 -0.265625q-0.28125 -0.265625 -0.28125 -0.671875q0 -0.421875 0.28125 -0.671875q0.296875 -0.265625 0.96875 -0.265625l3.90625 0q0.90625 0 1.78125 0.34375q0.875 0.34375 1.390625 0.859375q0.40625 0.390625 0.828125 1.078125q0.4375 0.671875 0.65625 1.359375q0.21875 0.671875 0.21875 1.640625l0 0.890625q0 1.1875 -0.40625 2.109375q-0.390625 0.90625 -1.046875 1.484375q-0.640625 0.578125 -1.21875 0.859375q-0.90625 0.421875 -2.359375 0.421875l-3.75 0q-0.671875 0 -0.96875 -0.25q-0.28125 -0.265625 -0.28125 -0.6875q0 -0.40625 0.28125 -0.671875q0.296875 -0.265625 0.875 -0.265625zm1.859375 0l2.0 0q1.109375 0 1.671875 -0.3125q0.734375 -0.421875 1.109375 -1.0625q0.375 -0.65625 0.375 -1.671875l0 -0.890625q0 -0.890625 -0.34375 -1.546875q-0.53125 -1.046875 -1.1875 -1.421875q-0.65625 -0.390625 -1.65625 -0.390625l-1.96875 0l0 7.296875zm18.195572 -1.3125l-7.65625 0q0.296875 0.734375 1.03125 1.1875q0.75 0.4375 2.015625 0.4375q1.03125 0 2.75 -0.453125q0.71875 -0.1875 0.984375 -0.1875q0.375 0 0.625 0.265625q0.265625 0.265625 0.265625 0.671875q0 0.359375 -0.28125 0.625q-0.359375 0.328125 -1.78125 0.640625q-1.40625 0.296875 -2.703125 0.296875q-2.25 0 -3.59375 -1.265625q-1.34375 -1.265625 -1.34375 -3.109375q0 -1.96875 1.453125 -3.203125q1.453125 -1.234375 3.359375 -1.234375q1.140625 0 2.078125 0.40625q0.953125 0.390625 1.421875 0.859375q0.65625 0.671875 1.09375 1.671875q0.28125 0.6875 0.28125 1.59375l0 0.796875zm-2.0625 -1.875q-0.4375 -0.796875 -1.125 -1.1875q-0.6875 -0.40625 -1.640625 -0.40625q-0.953125 0 -1.65625 0.40625q-0.6875 0.390625 -1.125 1.1875l5.546875 0zm8.117447 -1.34375l0 3.75q0 0.59375 0.25 0.78125q0.375 0.3125 1.359375 0.3125q1.4375 0 2.640625 -0.609375q0.46875 -0.234375 0.734375 -0.234375q0.359375 0 0.625 0.265625q0.265625 0.265625 0.265625 0.671875q0 0.359375 -0.28125 0.625q-0.453125 0.421875 -1.765625 0.78125q-1.3125 0.359375 -2.21875 0.359375q-1.734375 0 -2.609375 -0.75q-0.875 -0.75 -0.875 -1.84375l0 -4.109375l-0.671875 0q-0.671875 0 -0.96875 -0.25q-0.28125 -0.265625 -0.28125 -0.6875q0 -0.40625 0.28125 -0.65625q0.296875 -0.265625 0.96875 -0.265625l0.671875 0l0 -1.6875q0 -0.671875 0.265625 -0.953125q0.265625 -0.296875 0.671875 -0.296875q0.421875 0 0.671875 0.296875q0.265625 0.28125 0.265625 0.953125l0 1.6875l3.453125 0q0.671875 0 0.953125 0.265625q0.296875 0.25 0.296875 0.671875q0 0.40625 -0.296875 0.671875q-0.28125 0.25 -0.953125 0.25l-3.453125 0zm16.336197 3.21875l-7.65625 0q0.296875 0.734375 1.03125 1.1875q0.75 0.4375 2.015625 0.4375q1.03125 0 2.75 -0.453125q0.71875 -0.1875 0.984375 -0.1875q0.375 0 0.625 0.265625q0.265625 0.265625 0.265625 0.671875q0 0.359375 -0.28125 0.625q-0.359375 0.328125 -1.78125 0.640625q-1.40625 0.296875 -2.703125 0.296875q-2.25 0 -3.59375 -1.265625q-1.34375 -1.265625 -1.34375 -3.109375q0 -1.96875 1.453125 -3.203125q1.453125 -1.234375 3.359375 -1.234375q1.140625 0 2.078125 0.40625q0.953125 0.390625 1.421875 0.859375q0.65625 0.671875 1.09375 1.671875q0.28125 0.6875 0.28125 1.59375l0 0.796875zm-2.0625 -1.875q-0.4375 -0.796875 -1.125 -1.1875q-0.6875 -0.40625 -1.640625 -0.40625q-0.953125 0 -1.65625 0.40625q-0.6875 0.390625 -1.125 1.1875l5.546875 0zm11.492447 -2.875q0.328125 -0.3125 0.6875 -0.3125q0.390625 0 0.65625 0.296875q0.265625 0.28125 0.265625 0.9375l0 1.203125q0 0.671875 -0.265625 0.953125q-0.265625 0.28125 -0.671875 0.28125q-0.390625 0 -0.65625 -0.21875q-0.1875 -0.15625 -0.296875 -0.65625q-0.109375 -0.515625 -0.53125 -0.765625q-0.734375 -0.4375 -1.875 -0.4375q-1.328125 0 -2.125 0.78125q-0.796875 0.78125 -0.796875 1.953125q0 1.09375 0.765625 1.734375q0.765625 0.625 2.546875 0.625q1.15625 0 1.890625 -0.234375q0.4375 -0.140625 0.828125 -0.484375q0.40625 -0.359375 0.71875 -0.359375q0.375 0 0.65625 0.28125q0.28125 0.28125 0.28125 0.671875q0 0.609375 -0.84375 1.171875q-1.265625 0.828125 -3.6875 0.828125q-2.171875 0 -3.390625 -0.90625q-1.640625 -1.203125 -1.640625 -3.3125q0 -2.0 1.328125 -3.296875q1.34375 -1.3125 3.484375 -1.3125q0.765625 0 1.421875 0.15625q0.671875 0.140625 1.25 0.421875zm7.820572 1.53125l0 3.75q0 0.59375 0.25 0.78125q0.375 0.3125 1.359375 0.3125q1.4375 0 2.640625 -0.609375q0.46875 -0.234375 0.734375 -0.234375q0.359375 0 0.625 0.265625q0.265625 0.265625 0.265625 0.671875q0 0.359375 -0.28125 0.625q-0.453125 0.421875 -1.765625 0.78125q-1.3125 0.359375 -2.21875 0.359375q-1.734375 0 -2.609375 -0.75q-0.875 -0.75 -0.875 -1.84375l0 -4.109375l-0.671875 0q-0.671875 0 -0.96875 -0.25q-0.28125 -0.265625 -0.28125 -0.6875q0 -0.40625 0.28125 -0.65625q0.296875 -0.265625 0.96875 -0.265625l0.671875 0l0 -1.6875q0 -0.671875 0.265625 -0.953125q0.265625 -0.296875 0.671875 -0.296875q0.421875 0 0.671875 0.296875q0.265625 0.28125 0.265625 0.953125l0 1.6875l3.453125 0q0.671875 0 0.953125 0.265625q0.296875 0.25 0.296875 0.671875q0 0.40625 -0.296875 0.671875q-0.28125 0.25 -0.953125 0.25l-3.453125 0zm16.508072 2.421875q0 1.078125 -0.609375 2.09375q-0.59375 1.0 -1.78125 1.59375q-1.171875 0.59375 -2.453125 0.59375q-1.265625 0 -2.4375 -0.578125q-1.171875 -0.59375 -1.78125 -1.59375q-0.609375 -1.015625 -0.609375 -2.125q0 -1.125 0.609375 -2.203125q0.625 -1.078125 1.78125 -1.6875q1.171875 -0.625 2.4375 -0.625q1.28125 0 2.453125 0.640625q1.1875 0.625 1.78125 1.703125q0.609375 1.0625 0.609375 2.1875zm-1.875 0.015625q0 -0.90625 -0.640625 -1.65625q-0.890625 -1.03125 -2.328125 -1.03125q-1.265625 0 -2.109375 0.8125q-0.84375 0.8125 -0.84375 1.875q0 0.875 0.84375 1.640625q0.859375 0.765625 2.109375 0.765625q1.265625 0 2.109375 -0.765625q0.859375 -0.765625 0.859375 -1.640625zm7.820572 -4.296875l0 1.15625q1.1875 -0.84375 1.859375 -1.125q0.6875 -0.28125 1.265625 -0.28125q0.921875 0 1.78125 0.671875q0.578125 0.453125 0.578125 0.921875q0 0.40625 -0.28125 0.6875q-0.28125 0.28125 -0.671875 0.28125q-0.34375 0 -0.734375 -0.34375q-0.375 -0.359375 -0.671875 -0.359375q-0.390625 0 -1.171875 0.5q-0.78125 0.484375 -1.953125 1.46875l0 2.8125l2.671875 0q0.671875 0 0.953125 0.265625q0.296875 0.265625 0.296875 0.6875q0 0.40625 -0.296875 0.671875q-0.28125 0.25 -0.953125 0.25l-5.640625 0q-0.671875 0 -0.96875 -0.25q-0.28125 -0.265625 -0.28125 -0.6875q0 -0.40625 0.28125 -0.671875q0.296875 -0.265625 0.96875 -0.265625l1.109375 0l0 -4.53125l-0.671875 0q-0.671875 0 -0.96875 -0.25q-0.28125 -0.265625 -0.28125 -0.6875q0 -0.40625 0.28125 -0.65625q0.296875 -0.265625 0.96875 -0.265625l2.53125 0z" fill-rule="nonzero"/><path fill="#000000" fill-opacity="0.0" d="m692.3779 168.88583l159.24414 0l0 39.55905l-159.24414 0z" fill-rule="evenodd"/><path stroke="#000000" stroke-width="1.0" stroke-linejoin="round" stroke-linecap="butt" stroke-dasharray="4.0,3.0" d="m692.3779 168.88583l159.24414 0l0 39.55905l-159.24414 0z" fill-rule="evenodd"/><path fill="#000000" d="m741.28827 195.11661q-0.25 0.28125 -0.40625 0.375q-0.140625 0.078125 -0.359375 0.078125q-0.4375 0 -0.703125 -0.28125q-0.25 -0.296875 -0.25 -0.953125l0 -1.265625q0 -0.671875 0.25 -0.953125q0.265625 -0.296875 0.703125 -0.296875q0.328125 0 0.546875 0.171875q0.21875 0.171875 0.328125 0.578125q0.125 0.40625 0.265625 0.5625q0.25 0.28125 0.921875 0.578125q0.6875 0.28125 1.484375 0.28125q1.25 0 2.046875 -0.578125q0.515625 -0.359375 0.515625 -0.875q0 -0.34375 -0.25 -0.65625q-0.25 -0.3125 -0.796875 -0.5q-0.359375 -0.140625 -1.640625 -0.375q-1.515625 -0.28125 -2.3125 -0.6875q-0.78125 -0.40625 -1.234375 -1.125q-0.453125 -0.734375 -0.453125 -1.578125q0 -1.34375 1.109375 -2.34375q1.125 -1.015625 2.921875 -1.015625q0.71875 0 1.328125 0.171875q0.625 0.15625 1.125 0.484375q0.359375 -0.359375 0.734375 -0.359375q0.40625 0 0.65625 0.296875q0.265625 0.28125 0.265625 0.9375l0 1.40625q0 0.671875 -0.265625 0.96875q-0.25 0.28125 -0.65625 0.28125q-0.34375 0 -0.609375 -0.203125q-0.203125 -0.15625 -0.296875 -0.625q-0.09375 -0.46875 -0.25 -0.671875q-0.265625 -0.34375 -0.796875 -0.578125q-0.53125 -0.234375 -1.21875 -0.234375q-1.015625 0 -1.609375 0.46875q-0.578125 0.46875 -0.578125 0.984375q0 0.34375 0.234375 0.671875q0.25 0.3125 0.71875 0.5q0.296875 0.125 1.734375 0.40625q1.4375 0.28125 2.203125 0.625q0.78125 0.328125 1.28125 1.046875q0.515625 0.71875 0.515625 1.71875q0 1.375 -0.984375 2.21875q-1.28125 1.078125 -3.296875 1.078125q-0.765625 0 -1.5 -0.1875q-0.734375 -0.171875 -1.421875 -0.546875zm18.773743 -3.515625q0 1.078125 -0.609375 2.09375q-0.59375 1.0 -1.78125 1.59375q-1.171875 0.59375 -2.453125 0.59375q-1.265625 0 -2.4375 -0.578125q-1.171875 -0.59375 -1.78125 -1.59375q-0.609375 -1.015625 -0.609375 -2.125q0 -1.125 0.609375 -2.203125q0.625 -1.078125 1.78125 -1.6875q1.171875 -0.625 2.4375 -0.625q1.28125 0 2.453125 0.640625q1.1875 0.625 1.78125 1.703125q0.609375 1.0625 0.609375 2.1875zm-1.875 0.015625q0 -0.90625 -0.640625 -1.65625q-0.890625 -1.03125 -2.328125 -1.03125q-1.265625 0 -2.109375 0.8125q-0.84375 0.8125 -0.84375 1.875q0 0.875 0.84375 1.640625q0.859375 0.765625 2.109375 0.765625q1.265625 0 2.109375 -0.765625q0.859375 -0.765625 0.859375 -1.640625zm12.179932 -4.296875l0 6.390625q0.59375 0 0.875 0.265625q0.28125 0.265625 0.28125 0.6875q0 0.40625 -0.296875 0.671875q-0.28125 0.25 -0.953125 0.25l-1.765625 0l0 -0.421875q-0.8125 0.359375 -1.546875 0.53125q-0.71875 0.1875 -1.375 0.1875q-0.921875 0 -1.59375 -0.375q-0.671875 -0.390625 -1.0625 -1.078125q-0.28125 -0.5 -0.28125 -1.234375l0 -4.015625l-0.328125 0q-0.671875 0 -0.96875 -0.25q-0.28125 -0.265625 -0.28125 -0.6875q0 -0.40625 0.28125 -0.65625q0.296875 -0.265625 0.96875 -0.265625l2.1875 0l0 5.546875q0 0.59375 0.28125 0.875q0.296875 0.28125 0.890625 0.28125q0.5625 0 1.203125 -0.21875q0.65625 -0.234375 1.625 -0.8125l0 -3.8125l-0.6875 0q-0.671875 0 -0.953125 -0.25q-0.28125 -0.265625 -0.28125 -0.6875q0 -0.40625 0.28125 -0.65625q0.28125 -0.265625 0.953125 -0.265625l2.546875 0zm6.8361816 0l0 1.15625q1.1875 -0.84375 1.859375 -1.125q0.6875 -0.28125 1.265625 -0.28125q0.921875 0 1.78125 0.671875q0.578125 0.453125 0.578125 0.921875q0 0.40625 -0.28125 0.6875q-0.28125 0.28125 -0.671875 0.28125q-0.34375 0 -0.734375 -0.34375q-0.375 -0.359375 -0.671875 -0.359375q-0.390625 0 -1.171875 0.5q-0.78125 0.484375 -1.953125 1.46875l0 2.8125l2.671875 0q0.671875 0 0.953125 0.265625q0.296875 0.265625 0.296875 0.6875q0 0.40625 -0.296875 0.671875q-0.28125 0.25 -0.953125 0.25l-5.640625 0q-0.671875 0 -0.96875 -0.25q-0.28125 -0.265625 -0.28125 -0.6875q0 -0.40625 0.28125 -0.671875q0.296875 -0.265625 0.96875 -0.265625l1.109375 0l0 -4.53125l-0.671875 0q-0.671875 0 -0.96875 -0.25q-0.28125 -0.265625 -0.28125 -0.6875q0 -0.40625 0.28125 -0.65625q0.296875 -0.265625 0.96875 -0.265625l2.53125 0zm14.508057 0.328125q0.328125 -0.3125 0.6875 -0.3125q0.390625 0 0.65625 0.296875q0.265625 0.28125 0.265625 0.9375l0 1.203125q0 0.671875 -0.265625 0.953125q-0.265625 0.28125 -0.671875 0.28125q-0.390625 0 -0.65625 -0.21875q-0.1875 -0.15625 -0.296875 -0.65625q-0.109375 -0.515625 -0.53125 -0.765625q-0.734375 -0.4375 -1.875 -0.4375q-1.328125 0 -2.125 0.78125q-0.796875 0.78125 -0.796875 1.953125q0 1.09375 0.765625 1.734375q0.765625 0.625 2.546875 0.625q1.15625 0 1.890625 -0.234375q0.4375 -0.140625 0.828125 -0.484375q0.40625 -0.359375 0.71875 -0.359375q0.375 0 0.65625 0.28125q0.28125 0.28125 0.28125 0.671875q0 0.609375 -0.84375 1.171875q-1.265625 0.828125 -3.6875 0.828125q-2.171875 0 -3.390625 -0.90625q-1.640625 -1.203125 -1.640625 -3.3125q0 -2.0 1.328125 -3.296875q1.34375 -1.3125 3.484375 -1.3125q0.765625 0 1.421875 0.15625q0.671875 0.140625 1.25 0.421875zm12.961243 4.75l-7.65625 0q0.296875 0.734375 1.03125 1.1875q0.75 0.4375 2.015625 0.4375q1.03125 0 2.75 -0.453125q0.71875 -0.1875 0.984375 -0.1875q0.375 0 0.625 0.265625q0.265625 0.265625 0.265625 0.671875q0 0.359375 -0.28125 0.625q-0.359375 0.328125 -1.78125 0.640625q-1.40625 0.296875 -2.703125 0.296875q-2.25 0 -3.59375 -1.265625q-1.34375 -1.265625 -1.34375 -3.109375q0 -1.96875 1.453125 -3.203125q1.453125 -1.234375 3.359375 -1.234375q1.140625 0 2.078125 0.40625q0.953125 0.390625 1.421875 0.859375q0.65625 0.671875 1.09375 1.671875q0.28125 0.6875 0.28125 1.59375l0 0.796875zm-2.0625 -1.875q-0.4375 -0.796875 -1.125 -1.1875q-0.6875 -0.40625 -1.640625 -0.40625q-0.953125 0 -1.65625 0.40625q-0.6875 0.390625 -1.125 1.1875l5.546875 0z" fill-rule="nonzero"/><path fill="#000000" fill-opacity="0.0" d="m692.3779 224.88583l159.24414 0l0 39.55905l-159.24414 0z" fill-rule="evenodd"/><path stroke="#000000" stroke-width="1.0" stroke-linejoin="round" stroke-linecap="butt" stroke-dasharray="4.0,3.0" d="m692.3779 224.88583l159.24414 0l0 39.55905l-159.24414 0z" fill-rule="evenodd"/><path fill="#000000" d="m714.7369 246.99161l0 2.71875l1.921875 0q0.671875 0 0.953125 0.265625q0.296875 0.265625 0.296875 0.6875q0 0.40625 -0.296875 0.671875q-0.28125 0.25 -0.953125 0.25l-4.078125 0q-0.671875 0 -0.96875 -0.25q-0.28125 -0.265625 -0.28125 -0.6875q0 -0.40625 0.296875 -0.671875q0.296875 -0.265625 0.953125 -0.265625l0.296875 0l0 -7.296875l-0.296875 0q-0.671875 0 -0.96875 -0.25q-0.28125 -0.265625 -0.28125 -0.6875q0 -0.421875 0.28125 -0.671875q0.296875 -0.265625 0.96875 -0.265625l8.796875 0l0 2.859375q0 0.65625 -0.265625 0.953125q-0.25 0.28125 -0.671875 0.28125q-0.421875 0 -0.6875 -0.28125q-0.25 -0.28125 -0.25 -0.953125l0 -0.984375l-4.765625 0l0 2.703125l1.640625 0q0 -0.734375 0.140625 -0.9375q0.28125 -0.453125 0.796875 -0.453125q0.421875 0 0.671875 0.296875q0.265625 0.28125 0.265625 0.953125l0 2.15625q0 0.671875 -0.265625 0.96875q-0.25 0.28125 -0.671875 0.28125q-0.515625 0 -0.796875 -0.453125q-0.140625 -0.203125 -0.140625 -0.9375l-1.640625 0zm13.148682 -7.21875l0 1.96875l-2.21875 0l0 -1.96875l2.21875 0zm0.25 3.546875l0 6.390625l2.25 0q0.671875 0 0.953125 0.265625q0.296875 0.265625 0.296875 0.6875q0 0.40625 -0.296875 0.671875q-0.28125 0.25 -0.953125 0.25l-6.359375 0q-0.671875 0 -0.953125 -0.25q-0.28125 -0.265625 -0.28125 -0.6875q0 -0.40625 0.28125 -0.671875q0.28125 -0.265625 0.953125 -0.265625l2.25 0l0 -4.53125l-1.5 0q-0.671875 0 -0.96875 -0.25q-0.28125 -0.265625 -0.28125 -0.6875q0 -0.40625 0.28125 -0.65625q0.296875 -0.265625 0.96875 -0.265625l3.359375 0zm14.961182 5.078125l-7.65625 0q0.296875 0.734375 1.03125 1.1875q0.75 0.4375 2.015625 0.4375q1.03125 0 2.75 -0.453125q0.71875 -0.1875 0.984375 -0.1875q0.375 0 0.625 0.265625q0.265625 0.265625 0.265625 0.671875q0 0.359375 -0.28125 0.625q-0.359375 0.328125 -1.78125 0.640625q-1.40625 0.296875 -2.703125 0.296875q-2.25 0 -3.59375 -1.265625q-1.34375 -1.265625 -1.34375 -3.109375q0 -1.96875 1.453125 -3.203125q1.453125 -1.234375 3.359375 -1.234375q1.140625 0 2.078125 0.40625q0.953125 0.390625 1.421875 0.859375q0.65625 0.671875 1.09375 1.671875q0.28125 0.6875 0.28125 1.59375l0 0.796875zm-2.0625 -1.875q-0.4375 -0.796875 -1.125 -1.1875q-0.6875 -0.40625 -1.640625 -0.40625q-0.953125 0 -1.65625 0.40625q-0.6875 0.390625 -1.125 1.1875l5.546875 0zm9.508057 -6.75l0 9.9375l2.234375 0q0.6875 0 0.96875 0.265625q0.28125 0.265625 0.28125 0.6875q0 0.40625 -0.28125 0.671875q-0.28125 0.25 -0.96875 0.25l-6.34375 0q-0.671875 0 -0.96875 -0.25q-0.28125 -0.265625 -0.28125 -0.6875q0 -0.40625 0.28125 -0.671875q0.296875 -0.265625 0.96875 -0.265625l2.25 0l0 -8.078125l-1.515625 0q-0.65625 0 -0.953125 -0.25q-0.296875 -0.265625 -0.296875 -0.6875q0 -0.40625 0.28125 -0.65625q0.296875 -0.265625 0.96875 -0.265625l3.375 0zm14.554993 0l0 9.9375l0.3125 0q0.671875 0 0.953125 0.265625q0.296875 0.265625 0.296875 0.6875q0 0.40625 -0.296875 0.671875q-0.28125 0.25 -0.953125 0.25l-2.1875 0l0 -0.453125q-0.640625 0.375 -1.34375 0.5625q-0.6875 0.1875 -1.4375 0.1875q-2.09375 0 -3.390625 -1.203125q-1.28125 -1.21875 -1.28125 -3.03125q0 -1.90625 1.34375 -3.234375q1.359375 -1.34375 3.296875 -1.34375q0.734375 0 1.421875 0.21875q0.703125 0.21875 1.390625 0.671875l0 -2.328125l-0.3125 0q-0.6875 0 -0.96875 -0.25q-0.28125 -0.265625 -0.28125 -0.671875q0 -0.421875 0.28125 -0.671875q0.28125 -0.265625 0.96875 -0.265625l2.1875 0zm-1.875 7.921875q0 -1.15625 -0.8125 -1.953125q-0.8125 -0.8125 -1.984375 -0.8125q-1.171875 0 -1.984375 0.8125q-0.796875 0.796875 -0.796875 1.921875q0 1.03125 0.71875 1.703125q0.734375 0.65625 2.0625 0.65625q1.328125 0 2.0625 -0.65625q0.734375 -0.671875 0.734375 -1.671875zm14.023682 -1.625q0 2.484375 -1.59375 4.140625q-1.578125 1.640625 -3.640625 1.640625q-1.875 0 -3.375 -1.375q-1.859375 -1.703125 -1.859375 -4.40625q0 -2.71875 1.859375 -4.4375q1.5 -1.375 3.375 -1.375q2.0625 0 3.640625 1.65625q1.59375 1.65625 1.59375 4.15625zm-1.875 0q0 -1.703125 -1.03125 -2.8125q-1.015625 -1.125 -2.328125 -1.125q-1.3125 0 -2.34375 1.125q-1.03125 1.109375 -1.03125 2.8125q0 1.6875 1.03125 2.8125q1.03125 1.109375 2.34375 1.109375q1.3125 0 2.328125 -1.109375q1.03125 -1.109375 1.03125 -2.8125zm7.8049316 -0.890625l0 4.53125l2.671875 0q0.671875 0 0.953125 0.265625q0.28125 0.265625 0.28125 0.6875q0 0.40625 -0.28125 0.671875q-0.28125 0.25 -0.953125 0.25l-5.640625 0q-0.671875 0 -0.96875 -0.25q-0.28125 -0.265625 -0.28125 -0.6875q0 -0.40625 0.28125 -0.671875q0.296875 -0.265625 0.96875 -0.265625l1.109375 0l0 -4.53125l-0.890625 0q-0.671875 0 -0.96875 -0.25q-0.28125 -0.265625 -0.28125 -0.6875q0 -0.40625 0.28125 -0.65625q0.296875 -0.265625 0.96875 -0.265625l0.890625 0l0 -0.71875q0 -1.21875 0.90625 -2.015625q0.921875 -0.8125 2.65625 -0.8125q0.78125 0 1.796875 0.140625q1.015625 0.140625 1.296875 0.40625q0.296875 0.25 0.296875 0.640625q0 0.4375 -0.265625 0.703125q-0.25 0.265625 -0.625 0.265625q-0.171875 0 -0.515625 -0.0625q-1.15625 -0.234375 -2.046875 -0.234375q-0.9375 0 -1.296875 0.28125q-0.34375 0.28125 -0.34375 0.6875l0 0.71875l2.890625 0q0.671875 0 0.953125 0.265625q0.28125 0.25 0.28125 0.671875q0 0.40625 -0.28125 0.671875q-0.28125 0.25 -0.953125 0.25l-2.890625 0zm11.211182 3.6875l2.703125 -6.453125l-0.421875 0q-0.671875 0 -0.96875 -0.25q-0.28125 -0.265625 -0.28125 -0.6875q0 -0.421875 0.28125 -0.671875q0.296875 -0.265625 0.96875 -0.265625l2.5 0q0.671875 0 0.953125 0.265625q0.296875 0.25 0.296875 0.671875q0 0.5 -0.4375 0.796875q-0.203125 0.140625 -0.859375 0.140625l-3.828125 9.171875l-1.796875 0l-3.828125 -9.171875q-0.65625 0 -0.859375 -0.140625q-0.4375 -0.28125 -0.4375 -0.796875q0 -0.421875 0.28125 -0.671875q0.28125 -0.265625 0.953125 -0.265625l2.53125 0q0.671875 0 0.953125 0.265625q0.28125 0.25 0.28125 0.671875q0 0.421875 -0.28125 0.6875q-0.28125 0.25 -0.953125 0.25l-0.4375 0l2.6875 6.453125zm11.867493 -9.09375l0 1.96875l-2.21875 0l0 -1.96875l2.21875 0zm0.25 3.546875l0 6.390625l2.25 0q0.671875 0 0.953125 0.265625q0.296875 0.265625 0.296875 0.6875q0 0.40625 -0.296875 0.671875q-0.28125 0.25 -0.953125 0.25l-6.359375 0q-0.671875 0 -0.953125 -0.25q-0.28125 -0.265625 -0.28125 -0.6875q0 -0.40625 0.28125 -0.671875q0.28125 -0.265625 0.953125 -0.265625l2.25 0l0 -4.53125l-1.5 0q-0.671875 0 -0.96875 -0.25q-0.28125 -0.265625 -0.28125 -0.6875q0 -0.40625 0.28125 -0.65625q0.296875 -0.265625 0.96875 -0.265625l3.359375 0zm14.961182 5.078125l-7.65625 0q0.296875 0.734375 1.03125 1.1875q0.75 0.4375 2.015625 0.4375q1.03125 0 2.75 -0.453125q0.71875 -0.1875 0.984375 -0.1875q0.375 0 0.625 0.265625q0.265625 0.265625 0.265625 0.671875q0 0.359375 -0.28125 0.625q-0.359375 0.328125 -1.78125 0.640625q-1.40625 0.296875 -2.703125 0.296875q-2.25 0 -3.59375 -1.265625q-1.34375 -1.265625 -1.34375 -3.109375q0 -1.96875 1.453125 -3.203125q1.453125 -1.234375 3.359375 -1.234375q1.140625 0 2.078125 0.40625q0.953125 0.390625 1.421875 0.859375q0.65625 0.671875 1.09375 1.671875q0.28125 0.6875 0.28125 1.59375l0 0.796875zm-2.0625 -1.875q-0.4375 -0.796875 -1.125 -1.1875q-0.6875 -0.40625 -1.640625 -0.40625q-0.953125 0 -1.65625 0.40625q-0.6875 0.390625 -1.125 1.1875l5.546875 0zm8.586182 1.625l-1.296875 3.4375l-1.75 0l-1.5625 -6.40625q-0.515625 -0.03125 -0.78125 -0.28125q-0.25 -0.265625 -0.25 -0.65625q0 -0.40625 0.28125 -0.65625q0.28125 -0.265625 0.96875 -0.265625l1.734375 0q0.671875 0 0.953125 0.265625q0.296875 0.25 0.296875 0.671875q0 0.40625 -0.328125 0.703125q-0.25 0.21875 -0.96875 0.21875l0.703125 2.96875l1.15625 -3.046875l1.671875 0l1.15625 3.046875l0.734375 -2.96875q-0.6875 0 -0.90625 -0.140625q-0.4375 -0.28125 -0.4375 -0.796875q0 -0.40625 0.28125 -0.65625q0.28125 -0.265625 0.953125 -0.265625l1.765625 0q0.671875 0 0.953125 0.265625q0.296875 0.25 0.296875 0.671875q0 0.375 -0.25 0.640625q-0.25 0.25 -0.75 0.28125l-1.53125 6.40625l-1.71875 0l-1.375 -3.4375z" fill-rule="nonzero"/><path fill="#000000" fill-opacity="0.0" d="m692.3779 276.98557l159.24414 0l0 39.55905l-159.24414 0z" fill-rule="evenodd"/><path stroke="#000000" stroke-width="1.0" stroke-linejoin="round" stroke-linecap="butt" stroke-dasharray="4.0,3.0" d="m692.3779 276.98557l159.24414 0l0 39.55905l-159.24414 0z" fill-rule="evenodd"/><path fill="#000000" d="m722.5534 294.5132l0 7.296875l1.890625 0q0.671875 0 0.953125 0.265625q0.296875 0.265625 0.296875 0.6875q0 0.40625 -0.296875 0.671875q-0.28125 0.25 -0.953125 0.25l-5.640625 0q-0.671875 0 -0.96875 -0.25q-0.28125 -0.265625 -0.28125 -0.6875q0 -0.40625 0.28125 -0.671875q0.296875 -0.265625 0.96875 -0.265625l1.890625 0l0 -7.296875l-1.890625 0q-0.671875 0 -0.96875 -0.25q-0.28125 -0.265625 -0.28125 -0.6875q0 -0.421875 0.28125 -0.671875q0.296875 -0.265625 0.96875 -0.265625l5.640625 0q0.671875 0 0.953125 0.265625q0.296875 0.25 0.296875 0.671875q0 0.421875 -0.296875 0.6875q-0.28125 0.25 -0.953125 0.25l-1.890625 0zm7.3830566 0.90625l0 0.515625q0.453125 -0.4375 0.8125 -0.609375q0.375 -0.171875 0.859375 -0.171875q0.40625 0 0.8125 0.203125q0.40625 0.203125 0.78125 0.609375q0.484375 -0.40625 0.96875 -0.59375q0.5 -0.203125 1.03125 -0.203125q1.03125 0 1.6875 0.546875q0.84375 0.734375 0.84375 1.921875l0 4.171875q0.59375 0 0.875 0.265625q0.28125 0.265625 0.28125 0.6875q0 0.40625 -0.28125 0.671875q-0.28125 0.25 -0.953125 0.25l-1.78125 0l0 -5.890625q0 -0.4375 -0.15625 -0.59375q-0.15625 -0.171875 -0.46875 -0.171875q-0.3125 0 -0.578125 0.171875q-0.34375 0.21875 -0.828125 0.859375l0 3.75q0.59375 0 0.875 0.265625q0.28125 0.265625 0.28125 0.6875q0 0.40625 -0.28125 0.671875q-0.28125 0.25 -0.953125 0.25l-1.78125 0l0 -5.890625q0 -0.421875 -0.15625 -0.59375q-0.15625 -0.171875 -0.484375 -0.171875q-0.328125 0 -0.65625 0.21875q-0.3125 0.203125 -0.75 0.8125l0 3.75q0.578125 0 0.859375 0.265625q0.296875 0.265625 0.296875 0.6875q0 0.40625 -0.296875 0.671875q-0.28125 0.25 -0.953125 0.25l-1.6875 0q-0.671875 0 -0.953125 -0.25q-0.296875 -0.265625 -0.296875 -0.6875q0 -0.40625 0.28125 -0.671875q0.28125 -0.265625 0.875 -0.265625l0 -4.53125q-0.59375 0 -0.875 -0.265625q-0.28125 -0.265625 -0.28125 -0.671875q0 -0.40625 0.296875 -0.65625q0.28125 -0.265625 0.953125 -0.265625l1.78125 0zm15.758057 8.265625l0 -0.4375q-0.703125 0.375 -1.5625 0.5625q-0.84375 0.1875 -1.53125 0.1875q-1.5 0 -2.4375 -0.796875q-0.9375 -0.796875 -0.9375 -1.765625q0 -1.171875 1.1875 -2.171875q1.203125 -1.015625 3.3125 -1.015625q0.859375 0 1.96875 0.1875l0 -0.453125q0 -0.421875 -0.359375 -0.6875q-0.359375 -0.265625 -1.375 -0.265625q-0.828125 0 -2.15625 0.328125q-0.484375 0.125 -0.765625 0.125q-0.359375 0 -0.625 -0.265625q-0.265625 -0.265625 -0.265625 -0.6875q0 -0.234375 0.09375 -0.40625q0.09375 -0.1875 0.25 -0.28125q0.171875 -0.109375 0.6875 -0.25q0.703125 -0.203125 1.421875 -0.3125q0.71875 -0.109375 1.296875 -0.109375q1.734375 0 2.6875 0.75q0.96875 0.75 0.96875 2.046875l0 3.84375l0.328125 0q0.671875 0 0.953125 0.265625q0.296875 0.265625 0.296875 0.6875q0 0.40625 -0.296875 0.671875q-0.28125 0.25 -0.953125 0.25l-2.1875 0zm0 -3.34375q-1.125 -0.21875 -2.078125 -0.21875q-1.125 0 -1.953125 0.5625q-0.515625 0.34375 -0.515625 0.71875q0 0.265625 0.25 0.421875q0.453125 0.296875 1.25 0.296875q0.671875 0 1.515625 -0.265625q0.859375 -0.265625 1.53125 -0.71875l0 -0.796875zm11.570618 -4.375l0 -0.546875l2.1875 0q0.671875 0 0.953125 0.265625q0.296875 0.25 0.296875 0.671875q0 0.40625 -0.296875 0.671875q-0.28125 0.25 -0.953125 0.25l-0.328125 0l0 6.796875q0 0.984375 -0.421875 1.71875q-0.40625 0.734375 -1.265625 1.265625q-0.84375 0.53125 -1.921875 0.53125l-2.109375 0q-0.6875 0 -0.96875 -0.265625q-0.28125 -0.265625 -0.28125 -0.671875q0 -0.421875 0.28125 -0.6875q0.28125 -0.25 0.96875 -0.25l2.046875 0q0.859375 0 1.328125 -0.46875q0.484375 -0.453125 0.484375 -1.171875l0 -0.90625q-0.625 0.390625 -1.265625 0.59375q-0.640625 0.203125 -1.3125 0.203125q-1.90625 0 -3.203125 -1.265625q-1.28125 -1.28125 -1.28125 -3.140625q0 -1.875 1.28125 -3.140625q1.296875 -1.28125 3.203125 -1.28125q0.703125 0 1.34375 0.203125q0.640625 0.203125 1.234375 0.625zm-0.015625 3.578125q0 -1.03125 -0.765625 -1.78125q-0.75 -0.75 -1.8125 -0.75q-1.078125 0 -1.84375 0.75q-0.75 0.75 -0.75 1.78125q0 1.046875 0.75 1.796875q0.765625 0.75 1.84375 0.75q1.0625 0 1.8125 -0.75q0.765625 -0.75 0.765625 -1.796875zm13.836182 0.953125l-7.65625 0q0.296875 0.734375 1.03125 1.1875q0.75 0.4375 2.015625 0.4375q1.03125 0 2.75 -0.453125q0.71875 -0.1875 0.984375 -0.1875q0.375 0 0.625 0.265625q0.265625 0.265625 0.265625 0.671875q0 0.359375 -0.28125 0.625q-0.359375 0.328125 -1.78125 0.640625q-1.40625 0.296875 -2.703125 0.296875q-2.25 0 -3.59375 -1.265625q-1.34375 -1.265625 -1.34375 -3.109375q0 -1.96875 1.453125 -3.203125q1.453125 -1.234375 3.359375 -1.234375q1.140625 0 2.078125 0.40625q0.953125 0.390625 1.421875 0.859375q0.65625 0.671875 1.09375 1.671875q0.28125 0.6875 0.28125 1.59375l0 0.796875zm-2.0625 -1.875q-0.4375 -0.796875 -1.125 -1.1875q-0.6875 -0.40625 -1.640625 -0.40625q-0.953125 0 -1.65625 0.40625q-0.6875 0.390625 -1.125 1.1875l5.546875 0zm7.4924316 1.265625l0 1.921875l1.890625 0q0.671875 0 0.953125 0.265625q0.296875 0.265625 0.296875 0.6875q0 0.40625 -0.296875 0.671875q-0.28125 0.25 -0.953125 0.25l-4.046875 0q-0.671875 0 -0.96875 -0.25q-0.28125 -0.265625 -0.28125 -0.6875q0 -0.40625 0.28125 -0.671875q0.296875 -0.265625 0.96875 -0.265625l0.296875 0l0 -7.296875l-0.296875 0q-0.671875 0 -0.96875 -0.25q-0.28125 -0.265625 -0.28125 -0.6875q0 -0.421875 0.28125 -0.671875q0.296875 -0.265625 0.96875 -0.265625l4.296875 0q1.890625 0 3.0 1.046875q1.109375 1.03125 1.109375 2.515625q0 0.8125 -0.375 1.546875q-0.28125 0.546875 -0.9375 1.078125q-0.65625 0.53125 -1.34375 0.796875q-0.6875 0.265625 -1.828125 0.265625l-1.765625 0zm0 -1.859375l1.734375 0q1.21875 0 1.9375 -0.546875q0.71875 -0.5625 0.71875 -1.328125q0 -0.65625 -0.578125 -1.140625q-0.578125 -0.5 -1.65625 -0.5l-2.15625 0l0 3.515625zm13.211182 -6.15625l0 9.9375l2.234375 0q0.6875 0 0.96875 0.265625q0.28125 0.265625 0.28125 0.6875q0 0.40625 -0.28125 0.671875q-0.28125 0.25 -0.96875 0.25l-6.34375 0q-0.671875 0 -0.96875 -0.25q-0.28125 -0.265625 -0.28125 -0.6875q0 -0.40625 0.28125 -0.671875q0.296875 -0.265625 0.96875 -0.265625l2.25 0l0 -8.078125l-1.515625 0q-0.65625 0 -0.953125 -0.25q-0.296875 -0.265625 -0.296875 -0.6875q0 -0.40625 0.28125 -0.65625q0.296875 -0.265625 0.96875 -0.265625l3.375 0zm11.945618 11.8125l0 -0.4375q-0.703125 0.375 -1.5625 0.5625q-0.84375 0.1875 -1.53125 0.1875q-1.5 0 -2.4375 -0.796875q-0.9375 -0.796875 -0.9375 -1.765625q0 -1.171875 1.1875 -2.171875q1.203125 -1.015625 3.3125 -1.015625q0.859375 0 1.96875 0.1875l0 -0.453125q0 -0.421875 -0.359375 -0.6875q-0.359375 -0.265625 -1.375 -0.265625q-0.828125 0 -2.15625 0.328125q-0.484375 0.125 -0.765625 0.125q-0.359375 0 -0.625 -0.265625q-0.265625 -0.265625 -0.265625 -0.6875q0 -0.234375 0.09375 -0.40625q0.09375 -0.1875 0.25 -0.28125q0.171875 -0.109375 0.6875 -0.25q0.703125 -0.203125 1.421875 -0.3125q0.71875 -0.109375 1.296875 -0.109375q1.734375 0 2.6875 0.75q0.96875 0.75 0.96875 2.046875l0 3.84375l0.328125 0q0.671875 0 0.953125 0.265625q0.296875 0.265625 0.296875 0.6875q0 0.40625 -0.296875 0.671875q-0.28125 0.25 -0.953125 0.25l-2.1875 0zm0 -3.34375q-1.125 -0.21875 -2.078125 -0.21875q-1.125 0 -1.953125 0.5625q-0.515625 0.34375 -0.515625 0.71875q0 0.265625 0.25 0.421875q0.453125 0.296875 1.25 0.296875q0.671875 0 1.515625 -0.265625q0.859375 -0.265625 1.53125 -0.71875l0 -0.796875zm7.6174316 -4.921875l0 0.625q0.515625 -0.4375 1.125 -0.65625q0.625 -0.21875 1.34375 -0.21875q1.65625 0 2.625 1.03125q0.765625 0.8125 0.765625 2.140625l0 3.46875q0.578125 0 0.859375 0.265625q0.296875 0.265625 0.296875 0.6875q0 0.40625 -0.296875 0.671875q-0.28125 0.25 -0.953125 0.25l-1.6875 0q-0.671875 0 -0.96875 -0.25q-0.28125 -0.265625 -0.28125 -0.6875q0 -0.40625 0.28125 -0.671875q0.28125 -0.265625 0.875 -0.265625l0 -3.515625q0 -0.609375 -0.328125 -0.890625q-0.421875 -0.375 -1.28125 -0.375q-0.65625 0 -1.140625 0.25q-0.484375 0.25 -1.234375 1.0625l0 3.46875q0.71875 0 0.9375 0.140625q0.4375 0.28125 0.4375 0.8125q0 0.40625 -0.28125 0.671875q-0.28125 0.25 -0.96875 0.25l-2.109375 0q-0.6875 0 -0.96875 -0.25q-0.28125 -0.265625 -0.28125 -0.6875q0 -0.515625 0.4375 -0.796875q0.21875 -0.140625 0.9375 -0.140625l0 -4.53125q-0.59375 0 -0.875 -0.265625q-0.28125 -0.265625 -0.28125 -0.671875q0 -0.40625 0.28125 -0.65625q0.28125 -0.265625 0.96875 -0.265625l1.765625 0zm17.773682 5.078125l-7.65625 0q0.296875 0.734375 1.03125 1.1875q0.75 0.4375 2.015625 0.4375q1.03125 0 2.75 -0.453125q0.71875 -0.1875 0.984375 -0.1875q0.375 0 0.625 0.265625q0.265625 0.265625 0.265625 0.671875q0 0.359375 -0.28125 0.625q-0.359375 0.328125 -1.78125 0.640625q-1.40625 0.296875 -2.703125 0.296875q-2.25 0 -3.59375 -1.265625q-1.34375 -1.265625 -1.34375 -3.109375q0 -1.96875 1.453125 -3.203125q1.453125 -1.234375 3.359375 -1.234375q1.140625 0 2.078125 0.40625q0.953125 0.390625 1.421875 0.859375q0.65625 0.671875 1.09375 1.671875q0.28125 0.6875 0.28125 1.59375l0 0.796875zm-2.0625 -1.875q-0.4375 -0.796875 -1.125 -1.1875q-0.6875 -0.40625 -1.640625 -0.40625q-0.953125 0 -1.65625 0.40625q-0.6875 0.390625 -1.125 1.1875l5.546875 0z" fill-rule="nonzero"/><path fill="#000000" fill-opacity="0.0" d="m692.3779 331.5551l159.24414 0l0 39.55905l-159.24414 0z" fill-rule="evenodd"/><path stroke="#000000" stroke-width="1.0" stroke-linejoin="round" stroke-linecap="butt" stroke-dasharray="4.0,3.0" d="m692.3779 331.5551l159.24414 0l0 39.55905l-159.24414 0z" fill-rule="evenodd"/><path fill="#000000" d="m728.6396 356.37964l0 -7.296875q-0.59375 -0.015625 -0.875 -0.265625q-0.28125 -0.265625 -0.28125 -0.671875q0 -0.421875 0.28125 -0.671875q0.296875 -0.265625 0.96875 -0.265625l3.90625 0q0.90625 0 1.78125 0.34375q0.875 0.34375 1.390625 0.859375q0.40625 0.390625 0.828125 1.078125q0.4375 0.671875 0.65625 1.359375q0.21875 0.671875 0.21875 1.640625l0 0.890625q0 1.1875 -0.40625 2.109375q-0.390625 0.90625 -1.046875 1.484375q-0.640625 0.578125 -1.21875 0.859375q-0.90625 0.421875 -2.359375 0.421875l-3.75 0q-0.671875 0 -0.96875 -0.25q-0.28125 -0.265625 -0.28125 -0.6875q0 -0.40625 0.28125 -0.671875q0.296875 -0.265625 0.875 -0.265625zm1.859375 0l2.0 0q1.109375 0 1.671875 -0.3125q0.734375 -0.421875 1.109375 -1.0625q0.375 -0.65625 0.375 -1.671875l0 -0.890625q0 -0.890625 -0.34375 -1.546875q-0.53125 -1.046875 -1.1875 -1.421875q-0.65625 -0.390625 -1.65625 -0.390625l-1.96875 0l0 7.296875zm18.195557 -1.3125l-7.65625 0q0.296875 0.734375 1.03125 1.1875q0.75 0.4375 2.015625 0.4375q1.03125 0 2.75 -0.453125q0.71875 -0.1875 0.984375 -0.1875q0.375 0 0.625 0.265625q0.265625 0.265625 0.265625 0.671875q0 0.359375 -0.28125 0.625q-0.359375 0.328125 -1.78125 0.640625q-1.40625 0.296875 -2.703125 0.296875q-2.25 0 -3.59375 -1.265625q-1.34375 -1.265625 -1.34375 -3.109375q0 -1.96875 1.453125 -3.203125q1.453125 -1.234375 3.359375 -1.234375q1.140625 0 2.078125 0.40625q0.953125 0.390625 1.421875 0.859375q0.65625 0.671875 1.09375 1.671875q0.28125 0.6875 0.28125 1.59375l0 0.796875zm-2.0625 -1.875q-0.4375 -0.796875 -1.125 -1.1875q-0.6875 -0.40625 -1.640625 -0.40625q-0.953125 0 -1.65625 0.40625q-0.6875 0.390625 -1.125 1.1875l5.546875 0zm8.117493 -1.34375l0 3.75q0 0.59375 0.25 0.78125q0.375 0.3125 1.359375 0.3125q1.4375 0 2.640625 -0.609375q0.46875 -0.234375 0.734375 -0.234375q0.359375 0 0.625 0.265625q0.265625 0.265625 0.265625 0.671875q0 0.359375 -0.28125 0.625q-0.453125 0.421875 -1.765625 0.78125q-1.3125 0.359375 -2.21875 0.359375q-1.734375 0 -2.609375 -0.75q-0.875 -0.75 -0.875 -1.84375l0 -4.109375l-0.671875 0q-0.671875 0 -0.96875 -0.25q-0.28125 -0.265625 -0.28125 -0.6875q0 -0.40625 0.28125 -0.65625q0.296875 -0.265625 0.96875 -0.265625l0.671875 0l0 -1.6875q0 -0.671875 0.265625 -0.953125q0.265625 -0.296875 0.671875 -0.296875q0.421875 0 0.671875 0.296875q0.265625 0.28125 0.265625 0.953125l0 1.6875l3.453125 0q0.671875 0 0.953125 0.265625q0.296875 0.25 0.296875 0.671875q0 0.40625 -0.296875 0.671875q-0.28125 0.25 -0.953125 0.25l-3.453125 0zm16.336182 3.21875l-7.65625 0q0.296875 0.734375 1.03125 1.1875q0.75 0.4375 2.015625 0.4375q1.03125 0 2.75 -0.453125q0.71875 -0.1875 0.984375 -0.1875q0.375 0 0.625 0.265625q0.265625 0.265625 0.265625 0.671875q0 0.359375 -0.28125 0.625q-0.359375 0.328125 -1.78125 0.640625q-1.40625 0.296875 -2.703125 0.296875q-2.25 0 -3.59375 -1.265625q-1.34375 -1.265625 -1.34375 -3.109375q0 -1.96875 1.453125 -3.203125q1.453125 -1.234375 3.359375 -1.234375q1.140625 0 2.078125 0.40625q0.953125 0.390625 1.421875 0.859375q0.65625 0.671875 1.09375 1.671875q0.28125 0.6875 0.28125 1.59375l0 0.796875zm-2.0625 -1.875q-0.4375 -0.796875 -1.125 -1.1875q-0.6875 -0.40625 -1.640625 -0.40625q-0.953125 0 -1.65625 0.40625q-0.6875 0.390625 -1.125 1.1875l5.546875 0zm11.492432 -2.875q0.328125 -0.3125 0.6875 -0.3125q0.390625 0 0.65625 0.296875q0.265625 0.28125 0.265625 0.9375l0 1.203125q0 0.671875 -0.265625 0.953125q-0.265625 0.28125 -0.671875 0.28125q-0.390625 0 -0.65625 -0.21875q-0.1875 -0.15625 -0.296875 -0.65625q-0.109375 -0.515625 -0.53125 -0.765625q-0.734375 -0.4375 -1.875 -0.4375q-1.328125 0 -2.125 0.78125q-0.796875 0.78125 -0.796875 1.953125q0 1.09375 0.765625 1.734375q0.765625 0.625 2.546875 0.625q1.15625 0 1.890625 -0.234375q0.4375 -0.140625 0.828125 -0.484375q0.40625 -0.359375 0.71875 -0.359375q0.375 0 0.65625 0.28125q0.28125 0.28125 0.28125 0.671875q0 0.609375 -0.84375 1.171875q-1.265625 0.828125 -3.6875 0.828125q-2.171875 0 -3.390625 -0.90625q-1.640625 -1.203125 -1.640625 -3.3125q0 -2.0 1.328125 -3.296875q1.34375 -1.3125 3.484375 -1.3125q0.765625 0 1.421875 0.15625q0.671875 0.140625 1.25 0.421875zm7.8205566 1.53125l0 3.75q0 0.59375 0.25 0.78125q0.375 0.3125 1.359375 0.3125q1.4375 0 2.640625 -0.609375q0.46875 -0.234375 0.734375 -0.234375q0.359375 0 0.625 0.265625q0.265625 0.265625 0.265625 0.671875q0 0.359375 -0.28125 0.625q-0.453125 0.421875 -1.765625 0.78125q-1.3125 0.359375 -2.21875 0.359375q-1.734375 0 -2.609375 -0.75q-0.875 -0.75 -0.875 -1.84375l0 -4.109375l-0.671875 0q-0.671875 0 -0.96875 -0.25q-0.28125 -0.265625 -0.28125 -0.6875q0 -0.40625 0.28125 -0.65625q0.296875 -0.265625 0.96875 -0.265625l0.671875 0l0 -1.6875q0 -0.671875 0.265625 -0.953125q0.265625 -0.296875 0.671875 -0.296875q0.421875 0 0.671875 0.296875q0.265625 0.28125 0.265625 0.953125l0 1.6875l3.453125 0q0.671875 0 0.953125 0.265625q0.296875 0.25 0.296875 0.671875q0 0.40625 -0.296875 0.671875q-0.28125 0.25 -0.953125 0.25l-3.453125 0zm16.508118 2.421875q0 1.078125 -0.609375 2.09375q-0.59375 1.0 -1.78125 1.59375q-1.171875 0.59375 -2.453125 0.59375q-1.265625 0 -2.4375 -0.578125q-1.171875 -0.59375 -1.78125 -1.59375q-0.609375 -1.015625 -0.609375 -2.125q0 -1.125 0.609375 -2.203125q0.625 -1.078125 1.78125 -1.6875q1.171875 -0.625 2.4375 -0.625q1.28125 0 2.453125 0.640625q1.1875 0.625 1.78125 1.703125q0.609375 1.0625 0.609375 2.1875zm-1.875 0.015625q0 -0.90625 -0.640625 -1.65625q-0.890625 -1.03125 -2.328125 -1.03125q-1.265625 0 -2.109375 0.8125q-0.84375 0.8125 -0.84375 1.875q0 0.875 0.84375 1.640625q0.859375 0.765625 2.109375 0.765625q1.265625 0 2.109375 -0.765625q0.859375 -0.765625 0.859375 -1.640625zm7.8205566 -4.296875l0 1.15625q1.1875 -0.84375 1.859375 -1.125q0.6875 -0.28125 1.265625 -0.28125q0.921875 0 1.78125 0.671875q0.578125 0.453125 0.578125 0.921875q0 0.40625 -0.28125 0.6875q-0.28125 0.28125 -0.671875 0.28125q-0.34375 0 -0.734375 -0.34375q-0.375 -0.359375 -0.671875 -0.359375q-0.390625 0 -1.171875 0.5q-0.78125 0.484375 -1.953125 1.46875l0 2.8125l2.671875 0q0.671875 0 0.953125 0.265625q0.296875 0.265625 0.296875 0.6875q0 0.40625 -0.296875 0.671875q-0.28125 0.25 -0.953125 0.25l-5.640625 0q-0.671875 0 -0.96875 -0.25q-0.28125 -0.265625 -0.28125 -0.6875q0 -0.40625 0.28125 -0.671875q0.296875 -0.265625 0.96875 -0.265625l1.109375 0l0 -4.53125l-0.671875 0q-0.671875 0 -0.96875 -0.25q-0.28125 -0.265625 -0.28125 -0.6875q0 -0.40625 0.28125 -0.65625q0.296875 -0.265625 0.96875 -0.265625l2.53125 0z" fill-rule="nonzero"/><path fill="#000000" fill-opacity="0.0" d="m267.62204 244.66536l58.551178 24.440933" fill-rule="evenodd"/><path stroke="#595959" stroke-width="1.0" stroke-linejoin="round" stroke-linecap="butt" d="m267.62204 244.66536l53.01422 22.129654" fill-rule="evenodd"/><path fill="#595959" stroke="#595959" stroke-width="1.0" stroke-linecap="butt" d="m320.0 268.31927l4.8241577 0.22387695l-3.5516052 -3.2724z" fill-rule="evenodd"/><path fill="#000000" fill-opacity="0.0" d="m267.62204 296.7651l58.551178 -27.653564" fill-rule="evenodd"/><path stroke="#595959" stroke-width="1.0" stroke-linejoin="round" stroke-linecap="butt" d="m267.62204 296.7651l53.125854 -25.091187" fill-rule="evenodd"/><path fill="#595959" stroke="#595959" stroke-width="1.0" stroke-linecap="butt" d="m321.45328 273.16745l3.3980713 -3.4315796l-4.808838 0.44451904z" fill-rule="evenodd"/><path fill="#000000" fill-opacity="0.0" d="m267.62204 351.33466l58.551178 -82.20474" fill-rule="evenodd"/><path stroke="#595959" stroke-width="1.0" stroke-linejoin="round" stroke-linecap="butt" d="m267.62204 351.33466l55.070312 -77.31766" fill-rule="evenodd"/><path fill="#595959" stroke="#595959" stroke-width="1.0" stroke-linecap="butt" d="m324.03772 274.97525l1.287384 -4.654602l-3.978119 2.7380981z" fill-rule="evenodd"/><path fill="#000000" fill-opacity="0.0" d="m633.8268 269.11417l58.551147 -80.44093" fill-rule="evenodd"/><path stroke="#595959" stroke-width="1.0" stroke-linejoin="round" stroke-linecap="butt" d="m633.8268 269.11417l55.020264 -75.589905" fill-rule="evenodd"/><path fill="#595959" stroke="#595959" stroke-width="1.0" stroke-linecap="butt" d="m690.18243 194.49628l1.3352051 -4.641098l-4.0060425 2.6970367z" fill-rule="evenodd"/><path fill="#000000" fill-opacity="0.0" d="m633.8268 269.11417l58.551147 -24.440933" fill-rule="evenodd"/><path stroke="#595959" stroke-width="1.0" stroke-linejoin="round" stroke-linecap="butt" d="m633.8268 269.11417l53.01422 -22.129654" fill-rule="evenodd"/><path fill="#595959" stroke="#595959" stroke-width="1.0" stroke-linecap="butt" d="m687.47723 248.50877l3.5516357 -3.2724l-4.8241577 0.22387695z" fill-rule="evenodd"/><path fill="#000000" fill-opacity="0.0" d="m633.8268 269.11417l58.551147 27.653564" fill-rule="evenodd"/><path stroke="#595959" stroke-width="1.0" stroke-linejoin="round" stroke-linecap="butt" d="m633.8268 269.11417l53.125854 25.091187" fill-rule="evenodd"/><path fill="#595959" stroke="#595959" stroke-width="1.0" stroke-linecap="butt" d="m686.24725 295.69888l4.808838 0.44451904l-3.3980713 -3.4315796z" fill-rule="evenodd"/><path fill="#000000" fill-opacity="0.0" d="m633.8268 269.11417l58.551147 82.23624" fill-rule="evenodd"/><path stroke="#595959" stroke-width="1.0" stroke-linejoin="round" stroke-linecap="butt" d="m633.8268 269.11417l55.071167 77.34851" fill-rule="evenodd"/><path fill="#595959" stroke="#595959" stroke-width="1.0" stroke-linecap="butt" d="m687.5524 347.4207l3.9776 2.7388306l-1.28656 -4.6548157z" fill-rule="evenodd"/></g></svg>